<?xml version="1.0" encoding="utf-8"?>
<!-- Generator: Adobe Illustrator 21.1.0, SVG Export Plug-In . SVG Version: 6.00 Build 0)  -->
<svg version="1.1" id="Layer_1" xmlns="http://www.w3.org/2000/svg" xmlns:xlink="http://www.w3.org/1999/xlink" x="0px" y="0px"
	 viewBox="0 0 200 200" style="enable-background:new 0 0 200 200;" xml:space="preserve">
<style type="text/css">
	.st0{fill:#FAA800;}
	.st1{fill:#FF5722;}
	.st2{fill:#FF0000;}
</style>
<g>
	<rect x="31.5" y="60.7" class="st0" width="27.9" height="27.9"/>
	<rect x="3.7" y="88.6" class="st0" width="27.9" height="27.9"/>
	<rect x="31.5" y="88.6" class="st1" width="27.9" height="27.9"/>
	<rect x="59.4" y="60.7" class="st1" width="27.9" height="27.9"/>
	<rect x="59.4" y="88.6" class="st2" width="27.9" height="27.9"/>
	<rect x="59.4" y="116.4" class="st1" width="27.9" height="27.9"/>
	<rect x="59.4" y="144.3" class="st0" width="27.9" height="27.9"/>
	<rect x="87.3" y="5" class="st0" width="27.9" height="27.9"/>
	<rect x="87.3" y="32.9" class="st1" width="27.9" height="27.9"/>
	<rect x="115.1" y="32.9" class="st0" width="27.9" height="27.9"/>
	<rect x="87.3" y="60.7" class="st2" width="27.9" height="27.9"/>
	<rect x="115.1" y="60.7" class="st1" width="27.9" height="27.9"/>
	<rect x="115.1" y="88.6" class="st2" width="27.9" height="27.9"/>
	<rect x="143" y="88.6" class="st1" width="27.9" height="27.9"/>
	<rect x="170.8" y="88.6" class="st0" width="27.9" height="27.9"/>
	<rect x="87.3" y="116.4" class="st2" width="27.9" height="27.9"/>
	<rect x="115.1" y="116.4" class="st1" width="27.9" height="27.9"/>
	<rect x="143" y="116.4" class="st0" width="27.9" height="27.9"/>
	<rect x="87.3" y="144.3" class="st1" width="27.9" height="27.9"/>
	<rect x="87.3" y="172.1" class="st0" width="27.9" height="27.9"/>
</g>
</svg>
