<?xml version="1.0" encoding="utf-8"?>
<!-- Generator: Adobe Illustrator 21.1.0, SVG Export Plug-In . SVG Version: 6.00 Build 0)  -->
<svg version="1.1" xmlns="http://www.w3.org/2000/svg" xmlns:xlink="http://www.w3.org/1999/xlink" x="0px" y="0px"
	 viewBox="0 0 2000 200" style="enable-background:new 0 0 2000 200;" xml:space="preserve">
<style type="text/css">
	.st0{display:none;}
	.st1{fill:#80BE1F;}
	.st2{fill:#80A11F;}
	.st3{fill:#90C63A;}
	.st4{fill:#FFFFFF;}
</style>
<g id="guides" class="st0">
</g>
<g id="Layer_2">
	<g>
		<rect x="1800.3" y="14.8" class="st1" width="15.4" height="15.4"/>
		<rect x="1815.7" y="30.2" class="st2" width="15.4" height="15.4"/>
		<rect x="1969.3" y="30.2" class="st2" width="15.4" height="15.4"/>
		<rect x="1831" y="45.6" class="st3" width="15.4" height="15.4"/>
		<rect x="1861.7" y="45.6" class="st3" width="15.4" height="15.4"/>
		<rect x="1877.1" y="45.6" class="st1" width="15.4" height="15.4"/>
		<rect x="1892.5" y="45.6" class="st1" width="15.4" height="15.4"/>
		<rect x="1907.8" y="45.6" class="st1" width="15.4" height="15.4"/>
		<rect x="1923.2" y="45.6" class="st1" width="15.4" height="15.4"/>
		<rect x="1953.9" y="45.6" class="st1" width="15.4" height="15.4"/>
		<rect x="1846.4" y="60.9" class="st3" width="15.4" height="15.4"/>
		<rect x="1861.7" y="60.9" class="st1" width="15.4" height="15.4"/>
		<rect x="1877.1" y="60.9" class="st1" width="15.4" height="15.4"/>
		<rect x="1892.5" y="60.9" class="st4" width="15.4" height="15.4"/>
		<rect x="1907.8" y="60.9" class="st1" width="15.4" height="15.4"/>
		<rect x="1923.2" y="60.9" class="st1" width="15.4" height="15.4"/>
		<rect x="1938.6" y="60.9" class="st1" width="15.4" height="15.4"/>
		<rect x="1831" y="76.3" class="st3" width="15.4" height="15.4"/>
		<rect x="1846.4" y="76.3" class="st1" width="15.4" height="15.4"/>
		<rect x="1861.7" y="76.3" class="st1" width="15.4" height="15.4"/>
		<rect x="1877.1" y="76.3" class="st1" width="15.4" height="15.4"/>
		<rect x="1892.5" y="76.3" class="st2" width="15.4" height="15.4"/>
		<rect x="1907.8" y="76.3" class="st1" width="15.4" height="15.4"/>
		<rect x="1923.2" y="76.3" class="st1" width="15.4" height="15.4"/>
		<rect x="1938.6" y="76.3" class="st1" width="15.4" height="15.4"/>
		<rect x="1953.9" y="76.3" class="st1" width="15.4" height="15.4"/>
		<rect x="1815.7" y="91.6" class="st2" width="15.4" height="15.4"/>
		<rect x="1831" y="91.6" class="st1" width="15.4" height="15.4"/>
		<rect x="1846.4" y="91.6" class="st1" width="15.4" height="15.4"/>
		<rect x="1861.7" y="91.6" class="st4" width="15.4" height="15.4"/>
		<rect x="1877.1" y="91.6" class="st1" width="15.4" height="15.4"/>
		<rect x="1892.5" y="91.6" class="st1" width="15.4" height="15.4"/>
		<rect x="1907.8" y="91.6" class="st1" width="15.4" height="15.4"/>
		<rect x="1923.2" y="91.6" class="st4" width="15.4" height="15.4"/>
		<rect x="1938.6" y="91.6" class="st1" width="15.4" height="15.4"/>
		<rect x="1953.9" y="91.6" class="st1" width="15.4" height="15.4"/>
		<rect x="1969.3" y="91.6" class="st2" width="15.4" height="15.4"/>
		<rect x="1800.3" y="107" class="st1" width="15.4" height="15.4"/>
		<rect x="1831" y="107" class="st1" width="15.4" height="15.4"/>
		<rect x="1846.4" y="107" class="st1" width="15.4" height="15.4"/>
		<rect x="1861.7" y="107" class="st2" width="15.4" height="15.4"/>
		<rect x="1877.1" y="107" class="st1" width="15.4" height="15.4"/>
		<rect x="1892.5" y="107" class="st1" width="15.4" height="15.4"/>
		<rect x="1907.8" y="107" class="st1" width="15.4" height="15.4"/>
		<rect x="1923.2" y="107" class="st2" width="15.4" height="15.4"/>
		<rect x="1938.6" y="107" class="st1" width="15.4" height="15.4"/>
		<rect x="1953.9" y="107" class="st1" width="15.4" height="15.4"/>
		<rect x="1800.3" y="122.4" class="st1" width="15.4" height="15.4"/>
		<rect x="1831" y="122.4" class="st1" width="15.4" height="15.4"/>
		<rect x="1846.4" y="122.4" class="st2" width="15.4" height="15.4"/>
		<rect x="1861.7" y="122.4" class="st1" width="15.4" height="15.4"/>
		<rect x="1877.1" y="122.4" class="st2" width="15.4" height="15.4"/>
		<rect x="1892.5" y="122.4" class="st1" width="15.4" height="15.4"/>
		<rect x="1907.8" y="122.4" class="st2" width="15.4" height="15.4"/>
		<rect x="1923.2" y="122.4" class="st1" width="15.4" height="15.4"/>
		<rect x="1938.6" y="122.4" class="st2" width="15.4" height="15.4"/>
		<rect x="1953.9" y="122.4" class="st1" width="15.4" height="15.4"/>
		<rect x="1800.3" y="137.7" class="st1" width="15.4" height="15.4"/>
		<rect x="1831" y="137.7" class="st1" width="15.4" height="15.4"/>
		<rect x="1953.9" y="137.7" class="st1" width="15.4" height="15.4"/>
		<rect x="1846.4" y="153.1" class="st2" width="15.4" height="15.4"/>
		<rect x="1938.6" y="153.1" class="st2" width="15.4" height="15.4"/>
		<rect x="1861.7" y="168.5" class="st1" width="15.4" height="15.4"/>
		<rect x="1923.2" y="168.5" class="st1" width="15.4" height="15.4"/>
		<rect x="1984.6" y="14.8" class="st1" width="15.4" height="15.4"/>
		<rect x="1984.6" y="107" class="st1" width="15.4" height="15.4"/>
		<rect x="1984.6" y="122.4" class="st1" width="15.4" height="15.4"/>
		<rect x="1984.6" y="137.7" class="st1" width="15.4" height="15.4"/>
	</g>
</g>
<g id="Layer_3">
	<g>
		<rect x="1600.3" y="12.8" class="st1" width="15.4" height="15.4"/>
		<rect x="1615.7" y="28.2" class="st2" width="15.4" height="15.4"/>
		<rect x="1769.3" y="28.2" class="st2" width="15.4" height="15.4"/>
		<rect x="1631" y="43.6" class="st3" width="15.4" height="15.4"/>
		<rect x="1661.7" y="43.6" class="st3" width="15.4" height="15.4"/>
		<rect x="1677.1" y="43.6" class="st1" width="15.4" height="15.4"/>
		<rect x="1692.5" y="43.6" class="st1" width="15.4" height="15.4"/>
		<rect x="1707.8" y="43.6" class="st1" width="15.4" height="15.4"/>
		<rect x="1723.2" y="43.6" class="st1" width="15.4" height="15.4"/>
		<rect x="1753.9" y="43.6" class="st1" width="15.4" height="15.4"/>
		<rect x="1646.4" y="58.9" class="st3" width="15.4" height="15.4"/>
		<rect x="1661.7" y="58.9" class="st1" width="15.4" height="15.4"/>
		<rect x="1677.1" y="58.9" class="st1" width="15.4" height="15.4"/>
		<rect x="1692.5" y="58.9" class="st4" width="15.4" height="15.4"/>
		<rect x="1707.8" y="58.9" class="st1" width="15.4" height="15.4"/>
		<rect x="1723.2" y="58.9" class="st1" width="15.4" height="15.4"/>
		<rect x="1738.6" y="58.9" class="st1" width="15.4" height="15.4"/>
		<rect x="1631" y="74.3" class="st3" width="15.4" height="15.4"/>
		<rect x="1646.4" y="74.3" class="st1" width="15.4" height="15.4"/>
		<rect x="1661.7" y="74.3" class="st1" width="15.4" height="15.4"/>
		<rect x="1677.1" y="74.3" class="st1" width="15.4" height="15.4"/>
		<rect x="1692.5" y="74.3" class="st2" width="15.4" height="15.4"/>
		<rect x="1707.8" y="74.3" class="st1" width="15.4" height="15.4"/>
		<rect x="1723.2" y="74.3" class="st1" width="15.4" height="15.4"/>
		<rect x="1738.6" y="74.3" class="st1" width="15.4" height="15.4"/>
		<rect x="1753.9" y="74.3" class="st1" width="15.4" height="15.4"/>
		<rect x="1615.7" y="89.6" class="st2" width="15.4" height="15.4"/>
		<rect x="1631" y="89.6" class="st1" width="15.4" height="15.4"/>
		<rect x="1646.4" y="89.6" class="st1" width="15.4" height="15.4"/>
		<rect x="1661.7" y="89.6" class="st4" width="15.4" height="15.4"/>
		<rect x="1677.1" y="89.6" class="st1" width="15.4" height="15.4"/>
		<rect x="1692.5" y="89.6" class="st1" width="15.4" height="15.4"/>
		<rect x="1707.8" y="89.6" class="st1" width="15.4" height="15.4"/>
		<rect x="1723.2" y="89.6" class="st4" width="15.4" height="15.4"/>
		<rect x="1738.6" y="89.6" class="st1" width="15.4" height="15.4"/>
		<rect x="1753.9" y="89.6" class="st1" width="15.4" height="15.4"/>
		<rect x="1769.3" y="89.6" class="st2" width="15.4" height="15.4"/>
		<rect x="1600.3" y="105" class="st1" width="15.4" height="15.4"/>
		<rect x="1631" y="105" class="st1" width="15.4" height="15.4"/>
		<rect x="1646.4" y="105" class="st1" width="15.4" height="15.4"/>
		<rect x="1661.7" y="105" class="st2" width="15.4" height="15.4"/>
		<rect x="1677.1" y="105" class="st1" width="15.4" height="15.4"/>
		<rect x="1692.5" y="105" class="st1" width="15.4" height="15.4"/>
		<rect x="1707.8" y="105" class="st1" width="15.4" height="15.4"/>
		<rect x="1723.2" y="105" class="st2" width="15.4" height="15.4"/>
		<rect x="1738.6" y="105" class="st1" width="15.4" height="15.4"/>
		<rect x="1753.9" y="105" class="st1" width="15.4" height="15.4"/>
		<rect x="1600.3" y="120.4" class="st1" width="15.4" height="15.4"/>
		<rect x="1631" y="120.4" class="st1" width="15.4" height="15.4"/>
		<rect x="1646.4" y="120.4" class="st2" width="15.4" height="15.4"/>
		<rect x="1661.7" y="120.4" class="st1" width="15.4" height="15.4"/>
		<rect x="1677.1" y="120.4" class="st2" width="15.4" height="15.4"/>
		<rect x="1692.5" y="120.4" class="st1" width="15.4" height="15.4"/>
		<rect x="1707.8" y="120.4" class="st2" width="15.4" height="15.4"/>
		<rect x="1723.2" y="120.4" class="st1" width="15.4" height="15.4"/>
		<rect x="1738.6" y="120.4" class="st2" width="15.4" height="15.4"/>
		<rect x="1753.9" y="120.4" class="st1" width="15.4" height="15.4"/>
		<rect x="1600.3" y="135.7" class="st1" width="15.4" height="15.4"/>
		<rect x="1631" y="135.7" class="st1" width="15.4" height="15.4"/>
		<rect x="1753.9" y="135.7" class="st1" width="15.4" height="15.4"/>
		<rect x="1646.4" y="151.1" class="st2" width="15.4" height="15.4"/>
		<rect x="1738.6" y="151.1" class="st2" width="15.4" height="15.4"/>
		<rect x="1661.7" y="166.5" class="st1" width="15.4" height="15.4"/>
		<rect x="1723.2" y="166.5" class="st1" width="15.4" height="15.4"/>
		<rect x="1784.6" y="12.8" class="st1" width="15.4" height="15.4"/>
		<rect x="1784.6" y="105" class="st1" width="15.4" height="15.4"/>
		<rect x="1784.6" y="120.4" class="st1" width="15.4" height="15.4"/>
		<rect x="1784.6" y="135.7" class="st1" width="15.4" height="15.4"/>
	</g>
</g>
<g id="Layer_4">
	<g>
		<rect x="1401" y="14.8" class="st1" width="15.4" height="15.4"/>
		<rect x="1416.4" y="30.2" class="st2" width="15.4" height="15.4"/>
		<rect x="1570" y="30.2" class="st2" width="15.4" height="15.4"/>
		<rect x="1431.7" y="45.6" class="st3" width="15.4" height="15.4"/>
		<rect x="1462.4" y="45.6" class="st3" width="15.4" height="15.4"/>
		<rect x="1477.8" y="45.6" class="st1" width="15.4" height="15.4"/>
		<rect x="1493.2" y="45.6" class="st1" width="15.4" height="15.4"/>
		<rect x="1508.5" y="45.6" class="st1" width="15.4" height="15.4"/>
		<rect x="1523.9" y="45.6" class="st1" width="15.4" height="15.4"/>
		<rect x="1554.6" y="45.6" class="st1" width="15.4" height="15.4"/>
		<rect x="1447.1" y="60.9" class="st3" width="15.4" height="15.4"/>
		<rect x="1462.4" y="60.9" class="st1" width="15.4" height="15.4"/>
		<rect x="1477.8" y="60.9" class="st1" width="15.4" height="15.4"/>
		<rect x="1493.2" y="60.9" class="st4" width="15.4" height="15.4"/>
		<rect x="1508.5" y="60.9" class="st1" width="15.4" height="15.4"/>
		<rect x="1523.9" y="60.9" class="st1" width="15.4" height="15.4"/>
		<rect x="1539.3" y="60.9" class="st1" width="15.4" height="15.4"/>
		<rect x="1431.7" y="76.3" class="st3" width="15.4" height="15.4"/>
		<rect x="1447.1" y="76.3" class="st1" width="15.4" height="15.4"/>
		<rect x="1462.4" y="76.3" class="st1" width="15.4" height="15.4"/>
		<rect x="1477.8" y="76.3" class="st1" width="15.4" height="15.4"/>
		<rect x="1493.2" y="76.3" class="st2" width="15.4" height="15.4"/>
		<rect x="1508.5" y="76.3" class="st1" width="15.4" height="15.4"/>
		<rect x="1523.9" y="76.3" class="st1" width="15.4" height="15.4"/>
		<rect x="1539.3" y="76.3" class="st1" width="15.4" height="15.4"/>
		<rect x="1554.6" y="76.3" class="st1" width="15.4" height="15.4"/>
		<rect x="1416.4" y="91.6" class="st2" width="15.4" height="15.4"/>
		<rect x="1431.7" y="91.6" class="st1" width="15.4" height="15.4"/>
		<rect x="1447.1" y="91.6" class="st1" width="15.4" height="15.4"/>
		<rect x="1462.4" y="91.6" class="st4" width="15.4" height="15.4"/>
		<rect x="1477.8" y="91.6" class="st1" width="15.4" height="15.4"/>
		<rect x="1493.2" y="91.6" class="st1" width="15.4" height="15.4"/>
		<rect x="1508.5" y="91.6" class="st1" width="15.4" height="15.4"/>
		<rect x="1523.9" y="91.6" class="st4" width="15.4" height="15.4"/>
		<rect x="1539.3" y="91.6" class="st1" width="15.4" height="15.4"/>
		<rect x="1554.6" y="91.6" class="st1" width="15.4" height="15.4"/>
		<rect x="1570" y="91.6" class="st2" width="15.4" height="15.4"/>
		<rect x="1401" y="107" class="st1" width="15.4" height="15.4"/>
		<rect x="1431.7" y="107" class="st1" width="15.4" height="15.4"/>
		<rect x="1447.1" y="107" class="st1" width="15.4" height="15.4"/>
		<rect x="1462.4" y="107" class="st2" width="15.4" height="15.4"/>
		<rect x="1477.8" y="107" class="st1" width="15.4" height="15.4"/>
		<rect x="1493.2" y="107" class="st1" width="15.4" height="15.4"/>
		<rect x="1508.5" y="107" class="st1" width="15.4" height="15.4"/>
		<rect x="1523.9" y="107" class="st2" width="15.4" height="15.4"/>
		<rect x="1539.3" y="107" class="st1" width="15.4" height="15.4"/>
		<rect x="1554.6" y="107" class="st1" width="15.4" height="15.4"/>
		<rect x="1401" y="122.4" class="st1" width="15.4" height="15.4"/>
		<rect x="1431.7" y="122.4" class="st1" width="15.4" height="15.4"/>
		<rect x="1447.1" y="122.4" class="st2" width="15.4" height="15.4"/>
		<rect x="1462.4" y="122.4" class="st1" width="15.4" height="15.4"/>
		<rect x="1477.8" y="122.4" class="st2" width="15.4" height="15.4"/>
		<rect x="1493.2" y="122.4" class="st1" width="15.4" height="15.4"/>
		<rect x="1508.5" y="122.4" class="st2" width="15.4" height="15.4"/>
		<rect x="1523.9" y="122.4" class="st1" width="15.4" height="15.4"/>
		<rect x="1539.3" y="122.4" class="st2" width="15.4" height="15.4"/>
		<rect x="1554.6" y="122.4" class="st1" width="15.4" height="15.4"/>
		<rect x="1401" y="137.7" class="st1" width="15.4" height="15.4"/>
		<rect x="1431.7" y="137.7" class="st1" width="15.4" height="15.4"/>
		<rect x="1554.6" y="137.7" class="st1" width="15.4" height="15.4"/>
		<rect x="1447.1" y="153.1" class="st2" width="15.4" height="15.4"/>
		<rect x="1539.3" y="153.1" class="st2" width="15.4" height="15.4"/>
		<rect x="1462.4" y="168.5" class="st1" width="15.4" height="15.4"/>
		<rect x="1523.9" y="168.5" class="st1" width="15.4" height="15.4"/>
		<rect x="1585.3" y="14.8" class="st1" width="15.4" height="15.4"/>
		<rect x="1585.3" y="107" class="st1" width="15.4" height="15.4"/>
		<rect x="1585.3" y="122.4" class="st1" width="15.4" height="15.4"/>
		<rect x="1585.3" y="137.7" class="st1" width="15.4" height="15.4"/>
	</g>
</g>
<g id="Layer_5">
	<g>
		<rect x="1200.7" y="14.2" class="st1" width="15.4" height="15.4"/>
		<rect x="1216" y="29.5" class="st2" width="15.4" height="15.4"/>
		<rect x="1369.7" y="29.5" class="st2" width="15.4" height="15.4"/>
		<rect x="1231.4" y="44.9" class="st3" width="15.4" height="15.4"/>
		<rect x="1262.1" y="44.9" class="st3" width="15.4" height="15.4"/>
		<rect x="1277.5" y="44.9" class="st1" width="15.4" height="15.4"/>
		<rect x="1292.8" y="44.9" class="st1" width="15.4" height="15.4"/>
		<rect x="1308.2" y="44.9" class="st1" width="15.4" height="15.4"/>
		<rect x="1323.6" y="44.9" class="st1" width="15.4" height="15.4"/>
		<rect x="1354.3" y="44.9" class="st1" width="15.4" height="15.4"/>
		<rect x="1246.8" y="60.2" class="st3" width="15.4" height="15.4"/>
		<rect x="1262.1" y="60.2" class="st1" width="15.4" height="15.4"/>
		<rect x="1277.5" y="60.2" class="st1" width="15.4" height="15.4"/>
		<rect x="1292.8" y="60.2" class="st4" width="15.4" height="15.4"/>
		<rect x="1308.2" y="60.2" class="st1" width="15.4" height="15.4"/>
		<rect x="1323.6" y="60.2" class="st1" width="15.4" height="15.4"/>
		<rect x="1338.9" y="60.2" class="st1" width="15.4" height="15.4"/>
		<rect x="1231.4" y="75.6" class="st3" width="15.4" height="15.4"/>
		<rect x="1246.8" y="75.6" class="st1" width="15.4" height="15.4"/>
		<rect x="1262.1" y="75.6" class="st1" width="15.4" height="15.4"/>
		<rect x="1277.5" y="75.6" class="st1" width="15.4" height="15.4"/>
		<rect x="1292.8" y="75.6" class="st2" width="15.4" height="15.4"/>
		<rect x="1308.2" y="75.6" class="st1" width="15.4" height="15.4"/>
		<rect x="1323.6" y="75.6" class="st1" width="15.4" height="15.4"/>
		<rect x="1338.9" y="75.6" class="st1" width="15.4" height="15.4"/>
		<rect x="1354.3" y="75.6" class="st1" width="15.4" height="15.4"/>
		<rect x="1216" y="91" class="st2" width="15.4" height="15.4"/>
		<rect x="1231.4" y="91" class="st1" width="15.4" height="15.4"/>
		<rect x="1246.8" y="91" class="st1" width="15.4" height="15.4"/>
		<rect x="1262.1" y="91" class="st4" width="15.4" height="15.4"/>
		<rect x="1277.5" y="91" class="st1" width="15.4" height="15.4"/>
		<rect x="1292.8" y="91" class="st1" width="15.4" height="15.4"/>
		<rect x="1308.2" y="91" class="st1" width="15.4" height="15.4"/>
		<rect x="1323.6" y="91" class="st4" width="15.4" height="15.4"/>
		<rect x="1338.9" y="91" class="st1" width="15.4" height="15.4"/>
		<rect x="1354.3" y="91" class="st1" width="15.4" height="15.4"/>
		<rect x="1369.7" y="91" class="st2" width="15.4" height="15.4"/>
		<rect x="1200.7" y="106.3" class="st1" width="15.4" height="15.4"/>
		<rect x="1231.4" y="106.3" class="st1" width="15.4" height="15.4"/>
		<rect x="1246.8" y="106.3" class="st1" width="15.4" height="15.4"/>
		<rect x="1262.1" y="106.3" class="st2" width="15.4" height="15.4"/>
		<rect x="1277.5" y="106.3" class="st1" width="15.4" height="15.4"/>
		<rect x="1292.8" y="106.3" class="st1" width="15.4" height="15.4"/>
		<rect x="1308.2" y="106.3" class="st1" width="15.4" height="15.4"/>
		<rect x="1323.6" y="106.3" class="st2" width="15.4" height="15.4"/>
		<rect x="1338.9" y="106.3" class="st1" width="15.4" height="15.4"/>
		<rect x="1354.3" y="106.3" class="st1" width="15.4" height="15.4"/>
		<rect x="1200.7" y="121.7" class="st1" width="15.4" height="15.4"/>
		<rect x="1231.4" y="121.7" class="st1" width="15.4" height="15.4"/>
		<rect x="1246.8" y="121.7" class="st2" width="15.4" height="15.4"/>
		<rect x="1262.1" y="121.7" class="st1" width="15.4" height="15.4"/>
		<rect x="1277.5" y="121.7" class="st2" width="15.4" height="15.4"/>
		<rect x="1292.8" y="121.7" class="st1" width="15.4" height="15.4"/>
		<rect x="1308.2" y="121.7" class="st2" width="15.4" height="15.4"/>
		<rect x="1323.6" y="121.7" class="st1" width="15.4" height="15.4"/>
		<rect x="1338.9" y="121.7" class="st2" width="15.4" height="15.4"/>
		<rect x="1354.3" y="121.7" class="st1" width="15.4" height="15.4"/>
		<rect x="1200.7" y="137" class="st1" width="15.4" height="15.4"/>
		<rect x="1231.4" y="137" class="st1" width="15.4" height="15.4"/>
		<rect x="1354.3" y="137" class="st1" width="15.4" height="15.4"/>
		<rect x="1246.8" y="152.4" class="st2" width="15.4" height="15.4"/>
		<rect x="1338.9" y="152.4" class="st2" width="15.4" height="15.4"/>
		<rect x="1262.1" y="167.8" class="st1" width="15.4" height="15.4"/>
		<rect x="1323.6" y="167.8" class="st1" width="15.4" height="15.4"/>
		<rect x="1385" y="14.2" class="st1" width="15.4" height="15.4"/>
		<rect x="1385" y="106.3" class="st1" width="15.4" height="15.4"/>
		<rect x="1385" y="121.7" class="st1" width="15.4" height="15.4"/>
		<rect x="1385" y="137" class="st1" width="15.4" height="15.4"/>
	</g>
</g>
<g id="Layer_6">
	<g>
		<rect x="1001" y="13.8" class="st1" width="15.4" height="15.4"/>
		<rect x="1016.4" y="29.2" class="st2" width="15.4" height="15.4"/>
		<rect x="1170" y="29.2" class="st2" width="15.4" height="15.4"/>
		<rect x="1031.8" y="44.6" class="st3" width="15.4" height="15.4"/>
		<rect x="1062.5" y="44.6" class="st3" width="15.4" height="15.4"/>
		<rect x="1077.9" y="44.6" class="st1" width="15.4" height="15.4"/>
		<rect x="1093.2" y="44.6" class="st1" width="15.4" height="15.4"/>
		<rect x="1108.6" y="44.6" class="st1" width="15.4" height="15.4"/>
		<rect x="1123.9" y="44.6" class="st1" width="15.4" height="15.4"/>
		<rect x="1154.7" y="44.6" class="st1" width="15.4" height="15.4"/>
		<rect x="1047.1" y="59.9" class="st3" width="15.4" height="15.4"/>
		<rect x="1062.5" y="59.9" class="st1" width="15.4" height="15.4"/>
		<rect x="1077.9" y="59.9" class="st1" width="15.4" height="15.4"/>
		<rect x="1093.2" y="59.9" class="st4" width="15.4" height="15.4"/>
		<rect x="1108.6" y="59.9" class="st1" width="15.4" height="15.4"/>
		<rect x="1123.9" y="59.9" class="st1" width="15.4" height="15.4"/>
		<rect x="1139.3" y="59.9" class="st1" width="15.4" height="15.4"/>
		<rect x="1031.8" y="75.3" class="st3" width="15.4" height="15.4"/>
		<rect x="1047.1" y="75.3" class="st1" width="15.4" height="15.4"/>
		<rect x="1062.5" y="75.3" class="st1" width="15.4" height="15.4"/>
		<rect x="1077.9" y="75.3" class="st1" width="15.4" height="15.4"/>
		<rect x="1093.2" y="75.3" class="st2" width="15.4" height="15.4"/>
		<rect x="1108.6" y="75.3" class="st1" width="15.4" height="15.4"/>
		<rect x="1123.9" y="75.3" class="st1" width="15.4" height="15.4"/>
		<rect x="1139.3" y="75.3" class="st1" width="15.4" height="15.4"/>
		<rect x="1154.7" y="75.3" class="st1" width="15.4" height="15.4"/>
		<rect x="1016.4" y="90.6" class="st2" width="15.4" height="15.4"/>
		<rect x="1031.8" y="90.6" class="st1" width="15.4" height="15.4"/>
		<rect x="1047.1" y="90.6" class="st1" width="15.4" height="15.4"/>
		<rect x="1062.5" y="90.6" class="st4" width="15.4" height="15.4"/>
		<rect x="1077.9" y="90.6" class="st1" width="15.4" height="15.4"/>
		<rect x="1093.2" y="90.6" class="st1" width="15.4" height="15.4"/>
		<rect x="1108.6" y="90.6" class="st1" width="15.4" height="15.4"/>
		<rect x="1123.9" y="90.6" class="st4" width="15.4" height="15.4"/>
		<rect x="1139.3" y="90.6" class="st1" width="15.4" height="15.4"/>
		<rect x="1154.7" y="90.6" class="st1" width="15.4" height="15.4"/>
		<rect x="1170" y="90.6" class="st2" width="15.4" height="15.4"/>
		<rect x="1001" y="106" class="st1" width="15.4" height="15.4"/>
		<rect x="1031.8" y="106" class="st1" width="15.4" height="15.4"/>
		<rect x="1047.1" y="106" class="st1" width="15.4" height="15.4"/>
		<rect x="1062.5" y="106" class="st2" width="15.4" height="15.4"/>
		<rect x="1077.9" y="106" class="st1" width="15.4" height="15.4"/>
		<rect x="1093.2" y="106" class="st1" width="15.4" height="15.4"/>
		<rect x="1108.6" y="106" class="st1" width="15.4" height="15.4"/>
		<rect x="1123.9" y="106" class="st2" width="15.4" height="15.4"/>
		<rect x="1139.3" y="106" class="st1" width="15.4" height="15.4"/>
		<rect x="1154.7" y="106" class="st1" width="15.4" height="15.4"/>
		<rect x="1001" y="121.4" class="st1" width="15.4" height="15.4"/>
		<rect x="1031.8" y="121.4" class="st1" width="15.4" height="15.4"/>
		<rect x="1047.1" y="121.4" class="st2" width="15.4" height="15.4"/>
		<rect x="1062.5" y="121.4" class="st1" width="15.4" height="15.4"/>
		<rect x="1077.9" y="121.4" class="st2" width="15.4" height="15.4"/>
		<rect x="1093.2" y="121.4" class="st1" width="15.4" height="15.4"/>
		<rect x="1108.6" y="121.4" class="st2" width="15.4" height="15.4"/>
		<rect x="1123.9" y="121.4" class="st1" width="15.4" height="15.4"/>
		<rect x="1139.3" y="121.4" class="st2" width="15.4" height="15.4"/>
		<rect x="1154.7" y="121.4" class="st1" width="15.4" height="15.4"/>
		<rect x="1001" y="136.7" class="st1" width="15.4" height="15.4"/>
		<rect x="1031.8" y="136.7" class="st1" width="15.4" height="15.4"/>
		<rect x="1154.7" y="136.7" class="st1" width="15.4" height="15.4"/>
		<rect x="1047.1" y="152.1" class="st2" width="15.4" height="15.4"/>
		<rect x="1139.3" y="152.1" class="st2" width="15.4" height="15.4"/>
		<rect x="1062.5" y="167.5" class="st1" width="15.4" height="15.4"/>
		<rect x="1123.9" y="167.5" class="st1" width="15.4" height="15.4"/>
		<rect x="1185.4" y="13.8" class="st1" width="15.4" height="15.4"/>
		<rect x="1185.4" y="106" class="st1" width="15.4" height="15.4"/>
		<rect x="1185.4" y="121.4" class="st1" width="15.4" height="15.4"/>
		<rect x="1185.4" y="136.7" class="st1" width="15.4" height="15.4"/>
	</g>
</g>
<g id="Layer_7">
	<g>
		<rect x="800.5" y="14.5" class="st1" width="15.4" height="15.4"/>
		<rect x="815.8" y="29.9" class="st2" width="15.4" height="15.4"/>
		<rect x="969.5" y="29.9" class="st2" width="15.4" height="15.4"/>
		<rect x="831.2" y="45.2" class="st3" width="15.4" height="15.4"/>
		<rect x="861.9" y="45.2" class="st3" width="15.4" height="15.4"/>
		<rect x="877.3" y="45.2" class="st1" width="15.4" height="15.4"/>
		<rect x="892.7" y="45.2" class="st1" width="15.4" height="15.4"/>
		<rect x="908" y="45.2" class="st1" width="15.4" height="15.4"/>
		<rect x="923.4" y="45.2" class="st1" width="15.4" height="15.4"/>
		<rect x="954.1" y="45.2" class="st1" width="15.4" height="15.4"/>
		<rect x="846.6" y="60.6" class="st3" width="15.4" height="15.4"/>
		<rect x="861.9" y="60.6" class="st1" width="15.4" height="15.4"/>
		<rect x="877.3" y="60.6" class="st1" width="15.4" height="15.4"/>
		<rect x="892.7" y="60.6" class="st4" width="15.4" height="15.4"/>
		<rect x="908" y="60.6" class="st1" width="15.4" height="15.4"/>
		<rect x="923.4" y="60.6" class="st1" width="15.4" height="15.4"/>
		<rect x="938.7" y="60.6" class="st1" width="15.4" height="15.4"/>
		<rect x="831.2" y="76" class="st3" width="15.4" height="15.4"/>
		<rect x="846.6" y="76" class="st1" width="15.4" height="15.4"/>
		<rect x="861.9" y="76" class="st1" width="15.4" height="15.4"/>
		<rect x="877.3" y="76" class="st1" width="15.4" height="15.4"/>
		<rect x="892.7" y="76" class="st2" width="15.4" height="15.4"/>
		<rect x="908" y="76" class="st1" width="15.4" height="15.4"/>
		<rect x="923.4" y="76" class="st1" width="15.4" height="15.4"/>
		<rect x="938.7" y="76" class="st1" width="15.4" height="15.4"/>
		<rect x="954.1" y="76" class="st1" width="15.4" height="15.4"/>
		<rect x="815.8" y="91.3" class="st2" width="15.4" height="15.4"/>
		<rect x="831.2" y="91.3" class="st1" width="15.4" height="15.4"/>
		<rect x="846.6" y="91.3" class="st1" width="15.4" height="15.4"/>
		<rect x="861.9" y="91.3" class="st4" width="15.4" height="15.4"/>
		<rect x="877.3" y="91.3" class="st1" width="15.4" height="15.4"/>
		<rect x="892.7" y="91.3" class="st1" width="15.4" height="15.4"/>
		<rect x="908" y="91.3" class="st1" width="15.4" height="15.4"/>
		<rect x="923.4" y="91.3" class="st4" width="15.4" height="15.4"/>
		<rect x="938.7" y="91.3" class="st1" width="15.4" height="15.4"/>
		<rect x="954.1" y="91.3" class="st1" width="15.4" height="15.4"/>
		<rect x="969.5" y="91.3" class="st2" width="15.4" height="15.4"/>
		<rect x="800.5" y="106.7" class="st1" width="15.4" height="15.4"/>
		<rect x="831.2" y="106.7" class="st1" width="15.4" height="15.4"/>
		<rect x="846.6" y="106.7" class="st1" width="15.4" height="15.4"/>
		<rect x="861.9" y="106.7" class="st2" width="15.4" height="15.4"/>
		<rect x="877.3" y="106.7" class="st1" width="15.4" height="15.4"/>
		<rect x="892.7" y="106.7" class="st1" width="15.4" height="15.4"/>
		<rect x="908" y="106.7" class="st1" width="15.4" height="15.4"/>
		<rect x="923.4" y="106.7" class="st2" width="15.4" height="15.4"/>
		<rect x="938.7" y="106.7" class="st1" width="15.4" height="15.4"/>
		<rect x="954.1" y="106.7" class="st1" width="15.4" height="15.4"/>
		<rect x="800.5" y="122" class="st1" width="15.4" height="15.4"/>
		<rect x="831.2" y="122" class="st1" width="15.4" height="15.4"/>
		<rect x="846.6" y="122" class="st2" width="15.4" height="15.4"/>
		<rect x="861.9" y="122" class="st1" width="15.4" height="15.4"/>
		<rect x="877.3" y="122" class="st2" width="15.4" height="15.4"/>
		<rect x="892.7" y="122" class="st1" width="15.4" height="15.4"/>
		<rect x="908" y="122" class="st2" width="15.4" height="15.4"/>
		<rect x="923.4" y="122" class="st1" width="15.4" height="15.4"/>
		<rect x="938.7" y="122" class="st2" width="15.4" height="15.4"/>
		<rect x="954.1" y="122" class="st1" width="15.4" height="15.4"/>
		<rect x="800.5" y="137.4" class="st1" width="15.4" height="15.4"/>
		<rect x="831.2" y="137.4" class="st1" width="15.4" height="15.4"/>
		<rect x="954.1" y="137.4" class="st1" width="15.4" height="15.4"/>
		<rect x="846.6" y="152.8" class="st2" width="15.4" height="15.4"/>
		<rect x="938.7" y="152.8" class="st2" width="15.4" height="15.4"/>
		<rect x="861.9" y="168.1" class="st1" width="15.4" height="15.4"/>
		<rect x="923.4" y="168.1" class="st1" width="15.4" height="15.4"/>
		<rect x="984.8" y="14.5" class="st1" width="15.4" height="15.4"/>
		<rect x="984.8" y="106.7" class="st1" width="15.4" height="15.4"/>
		<rect x="984.8" y="122" class="st1" width="15.4" height="15.4"/>
		<rect x="984.8" y="137.4" class="st1" width="15.4" height="15.4"/>
	</g>
</g>
<g id="Layer_8">
	<g>
		<rect x="599.5" y="10.2" class="st1" width="15.4" height="15.4"/>
		<rect x="614.8" y="25.5" class="st2" width="15.4" height="15.4"/>
		<rect x="768.4" y="25.5" class="st2" width="15.4" height="15.4"/>
		<rect x="630.2" y="40.9" class="st3" width="15.4" height="15.4"/>
		<rect x="660.9" y="40.9" class="st3" width="15.4" height="15.4"/>
		<rect x="676.3" y="40.9" class="st1" width="15.4" height="15.4"/>
		<rect x="691.6" y="40.9" class="st1" width="15.4" height="15.4"/>
		<rect x="707" y="40.9" class="st1" width="15.4" height="15.4"/>
		<rect x="722.4" y="40.9" class="st1" width="15.4" height="15.4"/>
		<rect x="753.1" y="40.9" class="st1" width="15.4" height="15.4"/>
		<rect x="645.5" y="56.2" class="st3" width="15.4" height="15.4"/>
		<rect x="660.9" y="56.2" class="st1" width="15.4" height="15.4"/>
		<rect x="676.3" y="56.2" class="st1" width="15.4" height="15.4"/>
		<rect x="691.6" y="56.2" class="st4" width="15.4" height="15.4"/>
		<rect x="707" y="56.2" class="st1" width="15.4" height="15.4"/>
		<rect x="722.4" y="56.2" class="st1" width="15.4" height="15.4"/>
		<rect x="737.7" y="56.2" class="st1" width="15.4" height="15.4"/>
		<rect x="630.2" y="71.6" class="st3" width="15.4" height="15.4"/>
		<rect x="645.5" y="71.6" class="st1" width="15.4" height="15.4"/>
		<rect x="660.9" y="71.6" class="st1" width="15.4" height="15.4"/>
		<rect x="676.3" y="71.6" class="st1" width="15.4" height="15.4"/>
		<rect x="691.6" y="71.6" class="st2" width="15.4" height="15.4"/>
		<rect x="707" y="71.6" class="st1" width="15.4" height="15.4"/>
		<rect x="722.4" y="71.6" class="st1" width="15.4" height="15.4"/>
		<rect x="737.7" y="71.6" class="st1" width="15.4" height="15.4"/>
		<rect x="753.1" y="71.6" class="st1" width="15.4" height="15.4"/>
		<rect x="614.8" y="87" class="st2" width="15.4" height="15.4"/>
		<rect x="630.2" y="87" class="st1" width="15.4" height="15.4"/>
		<rect x="645.5" y="87" class="st1" width="15.4" height="15.4"/>
		<rect x="660.9" y="87" class="st4" width="15.4" height="15.4"/>
		<rect x="676.3" y="87" class="st1" width="15.4" height="15.4"/>
		<rect x="691.6" y="87" class="st1" width="15.4" height="15.4"/>
		<rect x="707" y="87" class="st1" width="15.4" height="15.4"/>
		<rect x="722.4" y="87" class="st4" width="15.4" height="15.4"/>
		<rect x="737.7" y="87" class="st1" width="15.4" height="15.4"/>
		<rect x="753.1" y="87" class="st1" width="15.4" height="15.4"/>
		<rect x="768.4" y="87" class="st2" width="15.4" height="15.4"/>
		<rect x="599.5" y="102.3" class="st1" width="15.4" height="15.4"/>
		<rect x="630.2" y="102.3" class="st1" width="15.4" height="15.4"/>
		<rect x="645.5" y="102.3" class="st1" width="15.4" height="15.4"/>
		<rect x="660.9" y="102.3" class="st2" width="15.4" height="15.4"/>
		<rect x="676.3" y="102.3" class="st1" width="15.4" height="15.4"/>
		<rect x="691.6" y="102.3" class="st1" width="15.4" height="15.4"/>
		<rect x="707" y="102.3" class="st1" width="15.4" height="15.4"/>
		<rect x="722.4" y="102.3" class="st2" width="15.4" height="15.4"/>
		<rect x="737.7" y="102.3" class="st1" width="15.4" height="15.4"/>
		<rect x="753.1" y="102.3" class="st1" width="15.4" height="15.4"/>
		<rect x="599.5" y="117.7" class="st1" width="15.4" height="15.4"/>
		<rect x="630.2" y="117.7" class="st1" width="15.4" height="15.4"/>
		<rect x="645.5" y="117.7" class="st2" width="15.4" height="15.4"/>
		<rect x="660.9" y="117.7" class="st1" width="15.4" height="15.4"/>
		<rect x="676.3" y="117.7" class="st2" width="15.4" height="15.4"/>
		<rect x="691.6" y="117.7" class="st1" width="15.4" height="15.4"/>
		<rect x="707" y="117.7" class="st2" width="15.4" height="15.4"/>
		<rect x="722.4" y="117.7" class="st1" width="15.4" height="15.4"/>
		<rect x="737.7" y="117.7" class="st2" width="15.4" height="15.4"/>
		<rect x="753.1" y="117.7" class="st1" width="15.4" height="15.4"/>
		<rect x="599.5" y="133" class="st1" width="15.4" height="15.4"/>
		<rect x="630.2" y="133" class="st1" width="15.4" height="15.4"/>
		<rect x="753.1" y="133" class="st1" width="15.4" height="15.4"/>
		<rect x="645.5" y="148.4" class="st2" width="15.4" height="15.4"/>
		<rect x="737.7" y="148.4" class="st2" width="15.4" height="15.4"/>
		<rect x="660.9" y="163.8" class="st1" width="15.4" height="15.4"/>
		<rect x="722.4" y="163.8" class="st1" width="15.4" height="15.4"/>
		<rect x="783.8" y="10.2" class="st1" width="15.4" height="15.4"/>
		<rect x="783.8" y="102.3" class="st1" width="15.4" height="15.4"/>
		<rect x="783.8" y="117.7" class="st1" width="15.4" height="15.4"/>
		<rect x="783.8" y="133" class="st1" width="15.4" height="15.4"/>
	</g>
</g>
<g id="Layer_9">
	<g>
		<rect x="401" y="17.8" class="st1" width="15.4" height="15.4"/>
		<rect x="416.4" y="33.2" class="st2" width="15.4" height="15.4"/>
		<rect x="570" y="33.2" class="st2" width="15.4" height="15.4"/>
		<rect x="431.8" y="48.6" class="st3" width="15.4" height="15.4"/>
		<rect x="462.5" y="48.6" class="st3" width="15.4" height="15.4"/>
		<rect x="477.9" y="48.6" class="st1" width="15.4" height="15.4"/>
		<rect x="493.2" y="48.6" class="st1" width="15.4" height="15.4"/>
		<rect x="508.6" y="48.6" class="st1" width="15.4" height="15.4"/>
		<rect x="523.9" y="48.6" class="st1" width="15.4" height="15.4"/>
		<rect x="554.7" y="48.6" class="st1" width="15.4" height="15.4"/>
		<rect x="447.1" y="63.9" class="st3" width="15.4" height="15.4"/>
		<rect x="462.5" y="63.9" class="st1" width="15.4" height="15.4"/>
		<rect x="477.9" y="63.9" class="st1" width="15.4" height="15.4"/>
		<rect x="493.2" y="63.9" class="st4" width="15.4" height="15.4"/>
		<rect x="508.6" y="63.9" class="st1" width="15.4" height="15.4"/>
		<rect x="523.9" y="63.9" class="st1" width="15.4" height="15.4"/>
		<rect x="539.3" y="63.9" class="st1" width="15.4" height="15.4"/>
		<rect x="431.8" y="79.3" class="st3" width="15.4" height="15.4"/>
		<rect x="447.1" y="79.3" class="st1" width="15.4" height="15.4"/>
		<rect x="462.5" y="79.3" class="st1" width="15.4" height="15.4"/>
		<rect x="477.9" y="79.3" class="st1" width="15.4" height="15.4"/>
		<rect x="493.2" y="79.3" class="st2" width="15.4" height="15.4"/>
		<rect x="508.6" y="79.3" class="st1" width="15.4" height="15.4"/>
		<rect x="523.9" y="79.3" class="st1" width="15.4" height="15.4"/>
		<rect x="539.3" y="79.3" class="st1" width="15.4" height="15.4"/>
		<rect x="554.7" y="79.3" class="st1" width="15.4" height="15.4"/>
		<rect x="416.4" y="94.6" class="st2" width="15.4" height="15.4"/>
		<rect x="431.8" y="94.6" class="st1" width="15.4" height="15.4"/>
		<rect x="447.1" y="94.6" class="st1" width="15.4" height="15.4"/>
		<rect x="462.5" y="94.6" class="st4" width="15.4" height="15.4"/>
		<rect x="477.9" y="94.6" class="st1" width="15.4" height="15.4"/>
		<rect x="493.2" y="94.6" class="st1" width="15.4" height="15.4"/>
		<rect x="508.6" y="94.6" class="st1" width="15.4" height="15.4"/>
		<rect x="523.9" y="94.6" class="st4" width="15.4" height="15.4"/>
		<rect x="539.3" y="94.6" class="st1" width="15.4" height="15.4"/>
		<rect x="554.7" y="94.6" class="st1" width="15.4" height="15.4"/>
		<rect x="570" y="94.6" class="st2" width="15.4" height="15.4"/>
		<rect x="401" y="110" class="st1" width="15.4" height="15.4"/>
		<rect x="431.8" y="110" class="st1" width="15.4" height="15.4"/>
		<rect x="447.1" y="110" class="st1" width="15.4" height="15.4"/>
		<rect x="462.5" y="110" class="st2" width="15.4" height="15.4"/>
		<rect x="477.9" y="110" class="st1" width="15.4" height="15.4"/>
		<rect x="493.2" y="110" class="st1" width="15.4" height="15.4"/>
		<rect x="508.6" y="110" class="st1" width="15.4" height="15.4"/>
		<rect x="523.9" y="110" class="st2" width="15.4" height="15.4"/>
		<rect x="539.3" y="110" class="st1" width="15.4" height="15.4"/>
		<rect x="554.7" y="110" class="st1" width="15.4" height="15.4"/>
		<rect x="401" y="125.4" class="st1" width="15.4" height="15.4"/>
		<rect x="431.8" y="125.4" class="st1" width="15.4" height="15.4"/>
		<rect x="447.1" y="125.4" class="st2" width="15.4" height="15.4"/>
		<rect x="462.5" y="125.4" class="st1" width="15.4" height="15.4"/>
		<rect x="477.9" y="125.4" class="st2" width="15.4" height="15.4"/>
		<rect x="493.2" y="125.4" class="st1" width="15.4" height="15.4"/>
		<rect x="508.6" y="125.4" class="st2" width="15.4" height="15.4"/>
		<rect x="523.9" y="125.4" class="st1" width="15.4" height="15.4"/>
		<rect x="539.3" y="125.4" class="st2" width="15.4" height="15.4"/>
		<rect x="554.7" y="125.4" class="st1" width="15.4" height="15.4"/>
		<rect x="401" y="140.7" class="st1" width="15.4" height="15.4"/>
		<rect x="431.8" y="140.7" class="st1" width="15.4" height="15.4"/>
		<rect x="554.7" y="140.7" class="st1" width="15.4" height="15.4"/>
		<rect x="447.1" y="156.1" class="st2" width="15.4" height="15.4"/>
		<rect x="539.3" y="156.1" class="st2" width="15.4" height="15.4"/>
		<rect x="462.5" y="171.5" class="st1" width="15.4" height="15.4"/>
		<rect x="523.9" y="171.5" class="st1" width="15.4" height="15.4"/>
		<rect x="585.4" y="17.8" class="st1" width="15.4" height="15.4"/>
		<rect x="585.4" y="110" class="st1" width="15.4" height="15.4"/>
		<rect x="585.4" y="125.4" class="st1" width="15.4" height="15.4"/>
		<rect x="585.4" y="140.7" class="st1" width="15.4" height="15.4"/>
	</g>
</g>
<g id="Layer_10">
	<g>
		<rect x="201" y="14.8" class="st1" width="15.4" height="15.4"/>
		<rect x="216.4" y="30.2" class="st2" width="15.4" height="15.4"/>
		<rect x="370" y="30.2" class="st2" width="15.4" height="15.4"/>
		<rect x="231.8" y="45.6" class="st3" width="15.4" height="15.4"/>
		<rect x="262.5" y="45.6" class="st3" width="15.4" height="15.4"/>
		<rect x="277.9" y="45.6" class="st1" width="15.4" height="15.4"/>
		<rect x="293.2" y="45.6" class="st1" width="15.4" height="15.4"/>
		<rect x="308.6" y="45.6" class="st1" width="15.4" height="15.4"/>
		<rect x="323.9" y="45.6" class="st1" width="15.4" height="15.4"/>
		<rect x="354.7" y="45.6" class="st1" width="15.4" height="15.4"/>
		<rect x="247.1" y="60.9" class="st3" width="15.4" height="15.4"/>
		<rect x="262.5" y="60.9" class="st1" width="15.4" height="15.4"/>
		<rect x="277.9" y="60.9" class="st1" width="15.4" height="15.4"/>
		<rect x="293.2" y="60.9" class="st4" width="15.4" height="15.4"/>
		<rect x="308.6" y="60.9" class="st1" width="15.4" height="15.4"/>
		<rect x="323.9" y="60.9" class="st1" width="15.4" height="15.4"/>
		<rect x="339.3" y="60.9" class="st1" width="15.4" height="15.4"/>
		<rect x="231.8" y="76.3" class="st3" width="15.4" height="15.4"/>
		<rect x="247.1" y="76.3" class="st1" width="15.4" height="15.4"/>
		<rect x="262.5" y="76.3" class="st1" width="15.4" height="15.4"/>
		<rect x="277.9" y="76.3" class="st1" width="15.4" height="15.4"/>
		<rect x="293.2" y="76.3" class="st2" width="15.4" height="15.4"/>
		<rect x="308.6" y="76.3" class="st1" width="15.4" height="15.4"/>
		<rect x="323.9" y="76.3" class="st1" width="15.4" height="15.4"/>
		<rect x="339.3" y="76.3" class="st1" width="15.4" height="15.4"/>
		<rect x="354.7" y="76.3" class="st1" width="15.4" height="15.4"/>
		<rect x="216.4" y="91.6" class="st2" width="15.4" height="15.4"/>
		<rect x="231.8" y="91.6" class="st1" width="15.4" height="15.4"/>
		<rect x="247.1" y="91.6" class="st1" width="15.4" height="15.4"/>
		<rect x="262.5" y="91.6" class="st4" width="15.4" height="15.4"/>
		<rect x="277.9" y="91.6" class="st1" width="15.4" height="15.4"/>
		<rect x="293.2" y="91.6" class="st1" width="15.4" height="15.4"/>
		<rect x="308.6" y="91.6" class="st1" width="15.4" height="15.4"/>
		<rect x="323.9" y="91.6" class="st4" width="15.4" height="15.4"/>
		<rect x="339.3" y="91.6" class="st1" width="15.4" height="15.4"/>
		<rect x="354.7" y="91.6" class="st1" width="15.4" height="15.4"/>
		<rect x="370" y="91.6" class="st2" width="15.4" height="15.4"/>
		<rect x="201" y="107" class="st1" width="15.4" height="15.4"/>
		<rect x="231.8" y="107" class="st1" width="15.4" height="15.4"/>
		<rect x="247.1" y="107" class="st1" width="15.4" height="15.4"/>
		<rect x="262.5" y="107" class="st2" width="15.4" height="15.4"/>
		<rect x="277.9" y="107" class="st1" width="15.4" height="15.4"/>
		<rect x="293.2" y="107" class="st1" width="15.4" height="15.4"/>
		<rect x="308.6" y="107" class="st1" width="15.4" height="15.4"/>
		<rect x="323.9" y="107" class="st2" width="15.4" height="15.4"/>
		<rect x="339.3" y="107" class="st1" width="15.4" height="15.4"/>
		<rect x="354.7" y="107" class="st1" width="15.4" height="15.4"/>
		<rect x="201" y="122.4" class="st1" width="15.4" height="15.4"/>
		<rect x="231.8" y="122.4" class="st1" width="15.4" height="15.4"/>
		<rect x="247.1" y="122.4" class="st2" width="15.4" height="15.4"/>
		<rect x="262.5" y="122.4" class="st1" width="15.4" height="15.4"/>
		<rect x="277.9" y="122.4" class="st2" width="15.4" height="15.4"/>
		<rect x="293.2" y="122.4" class="st1" width="15.4" height="15.4"/>
		<rect x="308.6" y="122.4" class="st2" width="15.4" height="15.4"/>
		<rect x="323.9" y="122.4" class="st1" width="15.4" height="15.4"/>
		<rect x="339.3" y="122.4" class="st2" width="15.4" height="15.4"/>
		<rect x="354.7" y="122.4" class="st1" width="15.4" height="15.4"/>
		<rect x="201" y="137.7" class="st1" width="15.4" height="15.4"/>
		<rect x="231.8" y="137.7" class="st1" width="15.4" height="15.4"/>
		<rect x="354.7" y="137.7" class="st1" width="15.4" height="15.4"/>
		<rect x="247.1" y="153.1" class="st2" width="15.4" height="15.4"/>
		<rect x="339.3" y="153.1" class="st2" width="15.4" height="15.4"/>
		<rect x="262.5" y="168.5" class="st1" width="15.4" height="15.4"/>
		<rect x="323.9" y="168.5" class="st1" width="15.4" height="15.4"/>
		<rect x="385.4" y="14.8" class="st1" width="15.4" height="15.4"/>
		<rect x="385.4" y="107" class="st1" width="15.4" height="15.4"/>
		<rect x="385.4" y="122.4" class="st1" width="15.4" height="15.4"/>
		<rect x="385.4" y="137.7" class="st1" width="15.4" height="15.4"/>
	</g>
</g>
<g id="Layer_11">
	<g>
		<rect x="1.3" y="14.8" class="st1" width="15.4" height="15.4"/>
		<rect x="16.7" y="30.2" class="st2" width="15.4" height="15.4"/>
		<rect x="170.3" y="30.2" class="st2" width="15.4" height="15.4"/>
		<rect x="32.1" y="45.6" class="st3" width="15.4" height="15.4"/>
		<rect x="62.8" y="45.6" class="st3" width="15.4" height="15.4"/>
		<rect x="78.1" y="45.6" class="st1" width="15.4" height="15.4"/>
		<rect x="93.5" y="45.6" class="st1" width="15.4" height="15.4"/>
		<rect x="108.9" y="45.6" class="st1" width="15.4" height="15.4"/>
		<rect x="124.2" y="45.6" class="st1" width="15.4" height="15.4"/>
		<rect x="155" y="45.6" class="st1" width="15.4" height="15.4"/>
		<rect x="47.4" y="60.9" class="st3" width="15.4" height="15.4"/>
		<rect x="62.8" y="60.9" class="st1" width="15.4" height="15.4"/>
		<rect x="78.1" y="60.9" class="st1" width="15.4" height="15.4"/>
		<rect x="93.5" y="60.9" class="st4" width="15.4" height="15.4"/>
		<rect x="108.9" y="60.9" class="st1" width="15.4" height="15.4"/>
		<rect x="124.2" y="60.9" class="st1" width="15.4" height="15.4"/>
		<rect x="139.6" y="60.9" class="st1" width="15.4" height="15.4"/>
		<rect x="32.1" y="76.3" class="st3" width="15.4" height="15.4"/>
		<rect x="47.4" y="76.3" class="st1" width="15.4" height="15.4"/>
		<rect x="62.8" y="76.3" class="st1" width="15.4" height="15.4"/>
		<rect x="78.1" y="76.3" class="st1" width="15.4" height="15.4"/>
		<rect x="93.5" y="76.3" class="st2" width="15.4" height="15.4"/>
		<rect x="108.9" y="76.3" class="st1" width="15.4" height="15.4"/>
		<rect x="124.2" y="76.3" class="st1" width="15.4" height="15.4"/>
		<rect x="139.6" y="76.3" class="st1" width="15.4" height="15.4"/>
		<rect x="155" y="76.3" class="st1" width="15.4" height="15.4"/>
		<rect x="16.7" y="91.6" class="st2" width="15.4" height="15.4"/>
		<rect x="32.1" y="91.6" class="st1" width="15.4" height="15.4"/>
		<rect x="47.4" y="91.6" class="st1" width="15.4" height="15.4"/>
		<rect x="62.8" y="91.6" class="st4" width="15.4" height="15.4"/>
		<rect x="78.1" y="91.6" class="st1" width="15.4" height="15.4"/>
		<rect x="93.5" y="91.6" class="st1" width="15.4" height="15.4"/>
		<rect x="108.9" y="91.6" class="st1" width="15.4" height="15.4"/>
		<rect x="124.2" y="91.6" class="st4" width="15.4" height="15.4"/>
		<rect x="139.6" y="91.6" class="st1" width="15.4" height="15.4"/>
		<rect x="155" y="91.6" class="st1" width="15.4" height="15.4"/>
		<rect x="170.3" y="91.6" class="st2" width="15.4" height="15.4"/>
		<rect x="1.3" y="107" class="st1" width="15.4" height="15.4"/>
		<rect x="32.1" y="107" class="st1" width="15.4" height="15.4"/>
		<rect x="47.4" y="107" class="st1" width="15.4" height="15.4"/>
		<rect x="62.8" y="107" class="st2" width="15.4" height="15.4"/>
		<rect x="78.1" y="107" class="st1" width="15.4" height="15.4"/>
		<rect x="93.5" y="107" class="st1" width="15.4" height="15.4"/>
		<rect x="108.9" y="107" class="st1" width="15.4" height="15.4"/>
		<rect x="124.2" y="107" class="st2" width="15.4" height="15.4"/>
		<rect x="139.6" y="107" class="st1" width="15.4" height="15.4"/>
		<rect x="155" y="107" class="st1" width="15.4" height="15.4"/>
		<rect x="1.3" y="122.4" class="st1" width="15.4" height="15.4"/>
		<rect x="32.1" y="122.4" class="st1" width="15.4" height="15.4"/>
		<rect x="47.4" y="122.4" class="st2" width="15.4" height="15.4"/>
		<rect x="62.8" y="122.4" class="st1" width="15.4" height="15.4"/>
		<rect x="78.1" y="122.4" class="st2" width="15.4" height="15.4"/>
		<rect x="93.5" y="122.4" class="st1" width="15.4" height="15.4"/>
		<rect x="108.9" y="122.4" class="st2" width="15.4" height="15.4"/>
		<rect x="124.2" y="122.4" class="st1" width="15.4" height="15.4"/>
		<rect x="139.6" y="122.4" class="st2" width="15.4" height="15.4"/>
		<rect x="155" y="122.4" class="st1" width="15.4" height="15.4"/>
		<rect x="1.3" y="137.7" class="st1" width="15.4" height="15.4"/>
		<rect x="32.1" y="137.7" class="st1" width="15.4" height="15.4"/>
		<rect x="155" y="137.7" class="st1" width="15.4" height="15.4"/>
		<rect x="47.4" y="153.1" class="st2" width="15.4" height="15.4"/>
		<rect x="139.6" y="153.1" class="st2" width="15.4" height="15.4"/>
		<rect x="62.8" y="168.5" class="st1" width="15.4" height="15.4"/>
		<rect x="124.2" y="168.5" class="st1" width="15.4" height="15.4"/>
		<rect x="185.7" y="14.8" class="st1" width="15.4" height="15.4"/>
		<rect x="185.7" y="107" class="st1" width="15.4" height="15.4"/>
		<rect x="185.7" y="122.4" class="st1" width="15.4" height="15.4"/>
		<rect x="185.7" y="137.7" class="st1" width="15.4" height="15.4"/>
	</g>
</g>
</svg>
