<?xml version="1.0" encoding="utf-8"?>
<!-- Generator: Adobe Illustrator 21.1.0, SVG Export Plug-In . SVG Version: 6.00 Build 0)  -->
<svg version="1.1" xmlns="http://www.w3.org/2000/svg" xmlns:xlink="http://www.w3.org/1999/xlink" x="0px" y="0px"
	 viewBox="0 0 2000 200" style="enable-background:new 0 0 2000 200;" xml:space="preserve">
<style type="text/css">
	.st0{display:none;}
	.st1{fill:#BB3D3D;}
	.st2{fill:#FFBD48;}
	.st3{fill:#FFC866;}
</style>
<g id="guides" class="st0">
</g>
<g id="Layer_2">
	<g>
		<rect x="8" y="153" class="st1" width="4" height="4"/>
		<rect x="16" y="153" class="st1" width="4" height="4"/>
		<rect x="20" y="153" class="st1" width="4" height="4"/>
		<rect x="24" y="153" class="st1" width="4" height="4"/>
		<rect x="12" y="157" class="st1" width="4" height="4"/>
		<rect x="24" y="157" class="st1" width="4" height="4"/>
		<rect x="28" y="157" class="st1" width="4" height="4"/>
		<rect x="32" y="157" class="st1" width="4" height="4"/>
		<rect x="4" y="161" class="st1" width="4" height="4"/>
		<rect x="24" y="161" class="st1" width="4" height="4"/>
		<rect x="28" y="161" class="st2" width="4" height="4"/>
		<rect x="32" y="161" class="st1" width="4" height="4"/>
		<rect x="16" y="165" class="st1" width="4" height="4"/>
		<rect x="20" y="165" class="st1" width="4" height="4"/>
		<rect x="24" y="165" class="st1" width="4" height="4"/>
		<rect x="28" y="165" class="st2" width="4" height="4"/>
		<rect x="32" y="165" class="st2" width="4" height="4"/>
		<rect x="12" y="169" class="st1" width="4" height="4"/>
		<rect x="16" y="169" class="st1" width="4" height="4"/>
		<rect x="20" y="169" class="st2" width="4" height="4"/>
		<rect x="24" y="169" class="st2" width="4" height="4"/>
		<rect x="28" y="169" class="st3" width="4" height="4"/>
		<rect x="32" y="169" class="st2" width="4" height="4"/>
		<rect x="12" y="173" class="st1" width="4" height="4"/>
		<rect x="16" y="173" class="st2" width="4" height="4"/>
		<rect x="20" y="173" class="st2" width="4" height="4"/>
		<rect x="24" y="173" class="st3" width="4" height="4"/>
		<rect x="28" y="173" class="st2" width="4" height="4"/>
		<rect x="32" y="173" class="st1" width="4" height="4"/>
		<rect x="12" y="177" class="st1" width="4" height="4"/>
		<rect x="16" y="177" class="st1" width="4" height="4"/>
		<rect x="20" y="177" class="st2" width="4" height="4"/>
		<rect x="24" y="177" class="st2" width="4" height="4"/>
		<rect x="28" y="177" class="st1" width="4" height="4"/>
		<rect x="32" y="177" class="st1" width="4" height="4"/>
		<rect x="16" y="181" class="st1" width="4" height="4"/>
		<rect x="20" y="181" class="st1" width="4" height="4"/>
		<rect x="24" y="181" class="st1" width="4" height="4"/>
		<rect x="28" y="181" class="st1" width="4" height="4"/>
		<rect x="36" y="161" class="st1" width="4" height="4"/>
		<rect x="36" y="165" class="st1" width="4" height="4"/>
		<rect x="36" y="169" class="st1" width="4" height="4"/>
		<rect x="36" y="173" class="st1" width="4" height="4"/>
	</g>
</g>
<g id="Layer_3">
	<g>
		<rect x="212.7" y="114.2" class="st1" width="8.8" height="8.8"/>
		<rect x="230.4" y="114.2" class="st1" width="8.8" height="8.8"/>
		<rect x="239.3" y="114.2" class="st1" width="8.8" height="8.8"/>
		<rect x="248.1" y="114.2" class="st1" width="8.8" height="8.8"/>
		<rect x="221.6" y="123" class="st1" width="8.8" height="8.8"/>
		<rect x="248.1" y="123" class="st1" width="8.8" height="8.8"/>
		<rect x="257" y="123" class="st1" width="8.8" height="8.8"/>
		<rect x="265.8" y="123" class="st1" width="8.8" height="8.8"/>
		<rect x="203.9" y="131.9" class="st1" width="8.8" height="8.8"/>
		<rect x="248.1" y="131.9" class="st1" width="8.8" height="8.8"/>
		<rect x="257" y="131.9" class="st2" width="8.8" height="8.8"/>
		<rect x="265.8" y="131.9" class="st1" width="8.8" height="8.8"/>
		<rect x="230.4" y="140.7" class="st1" width="8.8" height="8.8"/>
		<rect x="239.3" y="140.7" class="st1" width="8.8" height="8.8"/>
		<rect x="248.1" y="140.7" class="st1" width="8.8" height="8.8"/>
		<rect x="257" y="140.7" class="st2" width="8.8" height="8.8"/>
		<rect x="265.8" y="140.7" class="st2" width="8.8" height="8.8"/>
		<rect x="221.6" y="149.6" class="st1" width="8.8" height="8.8"/>
		<rect x="230.4" y="149.6" class="st1" width="8.8" height="8.8"/>
		<rect x="239.3" y="149.6" class="st2" width="8.8" height="8.8"/>
		<rect x="248.1" y="149.6" class="st2" width="8.8" height="8.8"/>
		<rect x="257" y="149.6" class="st3" width="8.8" height="8.8"/>
		<rect x="265.8" y="149.6" class="st2" width="8.8" height="8.8"/>
		<rect x="221.6" y="158.4" class="st1" width="8.8" height="8.8"/>
		<rect x="230.4" y="158.4" class="st2" width="8.8" height="8.8"/>
		<rect x="239.3" y="158.4" class="st2" width="8.8" height="8.8"/>
		<rect x="248.1" y="158.4" class="st3" width="8.8" height="8.8"/>
		<rect x="257" y="158.4" class="st2" width="8.8" height="8.8"/>
		<rect x="265.8" y="158.4" class="st1" width="8.8" height="8.8"/>
		<rect x="221.6" y="167.3" class="st1" width="8.8" height="8.8"/>
		<rect x="230.4" y="167.3" class="st1" width="8.8" height="8.8"/>
		<rect x="239.3" y="167.3" class="st2" width="8.8" height="8.8"/>
		<rect x="248.1" y="167.3" class="st2" width="8.8" height="8.8"/>
		<rect x="257" y="167.3" class="st1" width="8.8" height="8.8"/>
		<rect x="265.8" y="167.3" class="st1" width="8.8" height="8.8"/>
		<rect x="230.4" y="176.1" class="st1" width="8.8" height="8.8"/>
		<rect x="239.3" y="176.1" class="st1" width="8.8" height="8.8"/>
		<rect x="248.1" y="176.1" class="st1" width="8.8" height="8.8"/>
		<rect x="257" y="176.1" class="st1" width="8.8" height="8.8"/>
		<rect x="274.7" y="131.9" class="st1" width="8.8" height="8.8"/>
		<rect x="274.7" y="140.7" class="st1" width="8.8" height="8.8"/>
		<rect x="274.7" y="149.6" class="st1" width="8.8" height="8.8"/>
		<rect x="274.7" y="158.4" class="st1" width="8.8" height="8.8"/>
	</g>
</g>
<g id="Layer_4">
	<g>
		<rect x="419.3" y="65.3" class="st1" width="15" height="15"/>
		<rect x="449.2" y="65.3" class="st1" width="15" height="15"/>
		<rect x="464.2" y="65.3" class="st1" width="15" height="15"/>
		<rect x="479.1" y="65.3" class="st1" width="15" height="15"/>
		<rect x="434.2" y="80.2" class="st1" width="15" height="15"/>
		<rect x="479.1" y="80.2" class="st1" width="15" height="15"/>
		<rect x="494.1" y="80.2" class="st1" width="15" height="15"/>
		<rect x="509.1" y="80.2" class="st1" width="15" height="15"/>
		<rect x="404.3" y="95.2" class="st1" width="15" height="15"/>
		<rect x="479.1" y="95.2" class="st1" width="15" height="15"/>
		<rect x="494.1" y="95.2" class="st2" width="15" height="15"/>
		<rect x="509.1" y="95.2" class="st1" width="15" height="15"/>
		<rect x="449.2" y="110.2" class="st1" width="15" height="15"/>
		<rect x="464.2" y="110.2" class="st1" width="15" height="15"/>
		<rect x="479.1" y="110.2" class="st1" width="15" height="15"/>
		<rect x="494.1" y="110.2" class="st2" width="15" height="15"/>
		<rect x="509.1" y="110.2" class="st2" width="15" height="15"/>
		<rect x="434.2" y="125.1" class="st1" width="15" height="15"/>
		<rect x="449.2" y="125.1" class="st1" width="15" height="15"/>
		<rect x="464.2" y="125.1" class="st2" width="15" height="15"/>
		<rect x="479.1" y="125.1" class="st2" width="15" height="15"/>
		<rect x="494.1" y="125.1" class="st3" width="15" height="15"/>
		<rect x="509.1" y="125.1" class="st2" width="15" height="15"/>
		<rect x="434.2" y="140.1" class="st1" width="15" height="15"/>
		<rect x="449.2" y="140.1" class="st2" width="15" height="15"/>
		<rect x="464.2" y="140.1" class="st2" width="15" height="15"/>
		<rect x="479.1" y="140.1" class="st3" width="15" height="15"/>
		<rect x="494.1" y="140.1" class="st2" width="15" height="15"/>
		<rect x="509.1" y="140.1" class="st1" width="15" height="15"/>
		<rect x="434.2" y="155.1" class="st1" width="15" height="15"/>
		<rect x="449.2" y="155.1" class="st1" width="15" height="15"/>
		<rect x="464.2" y="155.1" class="st2" width="15" height="15"/>
		<rect x="479.1" y="155.1" class="st2" width="15" height="15"/>
		<rect x="494.1" y="155.1" class="st1" width="15" height="15"/>
		<rect x="509.1" y="155.1" class="st1" width="15" height="15"/>
		<rect x="449.2" y="170" class="st1" width="15" height="15"/>
		<rect x="464.2" y="170" class="st1" width="15" height="15"/>
		<rect x="479.1" y="170" class="st1" width="15" height="15"/>
		<rect x="494.1" y="170" class="st1" width="15" height="15"/>
		<rect x="524" y="95.2" class="st1" width="15" height="15"/>
		<rect x="524" y="110.2" class="st1" width="15" height="15"/>
		<rect x="524" y="125.1" class="st1" width="15" height="15"/>
		<rect x="524" y="140.1" class="st1" width="15" height="15"/>
	</g>
</g>
<g id="Layer_5">
	<g>
		<rect x="622.3" y="27" class="st1" width="19.6" height="19.6"/>
		<rect x="661.5" y="27" class="st1" width="19.6" height="19.6"/>
		<rect x="681.2" y="27" class="st1" width="19.6" height="19.6"/>
		<rect x="700.8" y="27" class="st1" width="19.6" height="19.6"/>
		<rect x="641.9" y="46.6" class="st1" width="19.6" height="19.6"/>
		<rect x="700.8" y="46.6" class="st1" width="19.6" height="19.6"/>
		<rect x="720.4" y="46.6" class="st1" width="19.6" height="19.6"/>
		<rect x="740" y="46.6" class="st1" width="19.6" height="19.6"/>
		<rect x="602.7" y="66.2" class="st1" width="19.6" height="19.6"/>
		<rect x="700.8" y="66.2" class="st1" width="19.6" height="19.6"/>
		<rect x="720.4" y="66.2" class="st2" width="19.6" height="19.6"/>
		<rect x="740" y="66.2" class="st1" width="19.6" height="19.6"/>
		<rect x="661.5" y="85.9" class="st1" width="19.6" height="19.6"/>
		<rect x="681.2" y="85.9" class="st1" width="19.6" height="19.6"/>
		<rect x="700.8" y="85.9" class="st1" width="19.6" height="19.6"/>
		<rect x="720.4" y="85.9" class="st2" width="19.6" height="19.6"/>
		<rect x="740" y="85.9" class="st2" width="19.6" height="19.6"/>
		<rect x="641.9" y="105.5" class="st1" width="19.6" height="19.6"/>
		<rect x="661.5" y="105.5" class="st1" width="19.6" height="19.6"/>
		<rect x="681.2" y="105.5" class="st2" width="19.6" height="19.6"/>
		<rect x="700.8" y="105.5" class="st2" width="19.6" height="19.6"/>
		<rect x="720.4" y="105.5" class="st3" width="19.6" height="19.6"/>
		<rect x="740" y="105.5" class="st2" width="19.6" height="19.6"/>
		<rect x="641.9" y="125.1" class="st1" width="19.6" height="19.6"/>
		<rect x="661.5" y="125.1" class="st2" width="19.6" height="19.6"/>
		<rect x="681.2" y="125.1" class="st2" width="19.6" height="19.6"/>
		<rect x="700.8" y="125.1" class="st3" width="19.6" height="19.6"/>
		<rect x="720.4" y="125.1" class="st2" width="19.6" height="19.6"/>
		<rect x="740" y="125.1" class="st1" width="19.6" height="19.6"/>
		<rect x="641.9" y="144.7" class="st1" width="19.6" height="19.6"/>
		<rect x="661.5" y="144.7" class="st1" width="19.6" height="19.6"/>
		<rect x="681.2" y="144.7" class="st2" width="19.6" height="19.6"/>
		<rect x="700.8" y="144.7" class="st2" width="19.6" height="19.6"/>
		<rect x="720.4" y="144.7" class="st1" width="19.6" height="19.6"/>
		<rect x="740" y="144.7" class="st1" width="19.6" height="19.6"/>
		<rect x="661.5" y="164.4" class="st1" width="19.6" height="19.6"/>
		<rect x="681.2" y="164.4" class="st1" width="19.6" height="19.6"/>
		<rect x="700.8" y="164.4" class="st1" width="19.6" height="19.6"/>
		<rect x="720.4" y="164.4" class="st1" width="19.6" height="19.6"/>
		<rect x="759.7" y="66.2" class="st1" width="19.6" height="19.6"/>
		<rect x="759.7" y="85.9" class="st1" width="19.6" height="19.6"/>
		<rect x="759.7" y="105.5" class="st1" width="19.6" height="19.6"/>
		<rect x="759.7" y="125.1" class="st1" width="19.6" height="19.6"/>
	</g>
</g>
<g id="Layer_6">
	<g>
		<rect x="824.1" y="7" class="st1" width="22.1" height="22.1"/>
		<rect x="868.3" y="7" class="st1" width="22.1" height="22.1"/>
		<rect x="890.4" y="7" class="st1" width="22.1" height="22.1"/>
		<rect x="912.5" y="7" class="st1" width="22.1" height="22.1"/>
		<rect x="846.2" y="29.1" class="st1" width="22.1" height="22.1"/>
		<rect x="912.5" y="29.1" class="st1" width="22.1" height="22.1"/>
		<rect x="934.7" y="29.1" class="st1" width="22.1" height="22.1"/>
		<rect x="956.8" y="29.1" class="st1" width="22.1" height="22.1"/>
		<rect x="801.9" y="51.2" class="st1" width="22.1" height="22.1"/>
		<rect x="912.5" y="51.2" class="st1" width="22.1" height="22.1"/>
		<rect x="934.7" y="51.2" class="st2" width="22.1" height="22.1"/>
		<rect x="956.8" y="51.2" class="st1" width="22.1" height="22.1"/>
		<rect x="868.3" y="73.4" class="st1" width="22.1" height="22.1"/>
		<rect x="890.4" y="73.4" class="st1" width="22.1" height="22.1"/>
		<rect x="912.5" y="73.4" class="st1" width="22.1" height="22.1"/>
		<rect x="934.7" y="73.4" class="st2" width="22.1" height="22.1"/>
		<rect x="956.8" y="73.4" class="st2" width="22.1" height="22.1"/>
		<rect x="846.2" y="95.5" class="st1" width="22.1" height="22.1"/>
		<rect x="868.3" y="95.5" class="st1" width="22.1" height="22.1"/>
		<rect x="890.4" y="95.5" class="st2" width="22.1" height="22.1"/>
		<rect x="912.5" y="95.5" class="st2" width="22.1" height="22.1"/>
		<rect x="934.7" y="95.5" class="st3" width="22.1" height="22.1"/>
		<rect x="956.8" y="95.5" class="st2" width="22.1" height="22.1"/>
		<rect x="846.2" y="117.6" class="st1" width="22.1" height="22.1"/>
		<rect x="868.3" y="117.6" class="st2" width="22.1" height="22.1"/>
		<rect x="890.4" y="117.6" class="st2" width="22.1" height="22.1"/>
		<rect x="912.5" y="117.6" class="st3" width="22.1" height="22.1"/>
		<rect x="934.7" y="117.6" class="st2" width="22.1" height="22.1"/>
		<rect x="956.8" y="117.6" class="st1" width="22.1" height="22.1"/>
		<rect x="846.2" y="139.7" class="st1" width="22.1" height="22.1"/>
		<rect x="868.3" y="139.7" class="st1" width="22.1" height="22.1"/>
		<rect x="890.4" y="139.7" class="st2" width="22.1" height="22.1"/>
		<rect x="912.5" y="139.7" class="st2" width="22.1" height="22.1"/>
		<rect x="934.7" y="139.7" class="st1" width="22.1" height="22.1"/>
		<rect x="956.8" y="139.7" class="st1" width="22.1" height="22.1"/>
		<rect x="868.3" y="161.9" class="st1" width="22.1" height="22.1"/>
		<rect x="890.4" y="161.9" class="st1" width="22.1" height="22.1"/>
		<rect x="912.5" y="161.9" class="st1" width="22.1" height="22.1"/>
		<rect x="934.7" y="161.9" class="st1" width="22.1" height="22.1"/>
		<rect x="978.9" y="51.2" class="st1" width="22.1" height="22.1"/>
		<rect x="978.9" y="73.4" class="st1" width="22.1" height="22.1"/>
		<rect x="978.9" y="95.5" class="st1" width="22.1" height="22.1"/>
		<rect x="978.9" y="117.6" class="st1" width="22.1" height="22.1"/>
	</g>
</g>
<g id="Layer_7">
	<g>
		<rect x="1043.9" y="13" class="st1" width="19.4" height="19.4"/>
		<rect x="1082.6" y="13" class="st1" width="19.4" height="19.4"/>
		<rect x="1102" y="13" class="st1" width="19.4" height="19.4"/>
		<rect x="1121.3" y="13" class="st1" width="19.4" height="19.4"/>
		<rect x="1063.2" y="32.4" class="st1" width="19.4" height="19.4"/>
		<rect x="1121.3" y="32.4" class="st1" width="19.4" height="19.4"/>
		<rect x="1140.7" y="32.4" class="st1" width="19.4" height="19.4"/>
		<rect x="1160.1" y="32.4" class="st1" width="19.4" height="19.4"/>
		<rect x="1024.5" y="51.7" class="st1" width="19.4" height="19.4"/>
		<rect x="1121.3" y="51.7" class="st1" width="19.4" height="19.4"/>
		<rect x="1140.7" y="51.7" class="st2" width="19.4" height="19.4"/>
		<rect x="1160.1" y="51.7" class="st1" width="19.4" height="19.4"/>
		<rect x="1082.6" y="71.1" class="st1" width="19.4" height="19.4"/>
		<rect x="1102" y="71.1" class="st1" width="19.4" height="19.4"/>
		<rect x="1121.3" y="71.1" class="st1" width="19.4" height="19.4"/>
		<rect x="1140.7" y="71.1" class="st2" width="19.4" height="19.4"/>
		<rect x="1160.1" y="71.1" class="st2" width="19.4" height="19.4"/>
		<rect x="1063.2" y="90.5" class="st1" width="19.4" height="19.4"/>
		<rect x="1082.6" y="90.5" class="st1" width="19.4" height="19.4"/>
		<rect x="1102" y="90.5" class="st2" width="19.4" height="19.4"/>
		<rect x="1121.3" y="90.5" class="st2" width="19.4" height="19.4"/>
		<rect x="1140.7" y="90.5" class="st3" width="19.4" height="19.4"/>
		<rect x="1160.1" y="90.5" class="st2" width="19.4" height="19.4"/>
		<rect x="1063.2" y="109.8" class="st1" width="19.4" height="19.4"/>
		<rect x="1082.6" y="109.8" class="st2" width="19.4" height="19.4"/>
		<rect x="1102" y="109.8" class="st2" width="19.4" height="19.4"/>
		<rect x="1121.3" y="109.8" class="st3" width="19.4" height="19.4"/>
		<rect x="1140.7" y="109.8" class="st2" width="19.4" height="19.4"/>
		<rect x="1160.1" y="109.8" class="st1" width="19.4" height="19.4"/>
		<rect x="1063.2" y="129.2" class="st1" width="19.4" height="19.4"/>
		<rect x="1082.6" y="129.2" class="st1" width="19.4" height="19.4"/>
		<rect x="1102" y="129.2" class="st2" width="19.4" height="19.4"/>
		<rect x="1121.3" y="129.2" class="st2" width="19.4" height="19.4"/>
		<rect x="1140.7" y="129.2" class="st1" width="19.4" height="19.4"/>
		<rect x="1160.1" y="129.2" class="st1" width="19.4" height="19.4"/>
		<rect x="1082.6" y="148.6" class="st1" width="19.4" height="19.4"/>
		<rect x="1102" y="148.6" class="st1" width="19.4" height="19.4"/>
		<rect x="1121.3" y="148.6" class="st1" width="19.4" height="19.4"/>
		<rect x="1140.7" y="148.6" class="st1" width="19.4" height="19.4"/>
		<rect x="1179.4" y="51.7" class="st1" width="19.4" height="19.4"/>
		<rect x="1179.4" y="71.1" class="st1" width="19.4" height="19.4"/>
		<rect x="1179.4" y="90.5" class="st1" width="19.4" height="19.4"/>
		<rect x="1179.4" y="109.8" class="st1" width="19.4" height="19.4"/>
	</g>
</g>
<g id="Layer_8">
	<g>
		<rect x="1272.8" y="13" class="st1" width="16" height="16"/>
		<rect x="1304.8" y="13" class="st1" width="16" height="16"/>
		<rect x="1320.8" y="13" class="st1" width="16" height="16"/>
		<rect x="1336.9" y="13" class="st1" width="16" height="16"/>
		<rect x="1288.8" y="29" class="st1" width="16" height="16"/>
		<rect x="1336.9" y="29" class="st1" width="16" height="16"/>
		<rect x="1352.9" y="29" class="st1" width="16" height="16"/>
		<rect x="1368.9" y="29" class="st1" width="16" height="16"/>
		<rect x="1256.7" y="45.1" class="st1" width="16" height="16"/>
		<rect x="1336.9" y="45.1" class="st1" width="16" height="16"/>
		<rect x="1352.9" y="45.1" class="st2" width="16" height="16"/>
		<rect x="1368.9" y="45.1" class="st1" width="16" height="16"/>
		<rect x="1304.8" y="61.1" class="st1" width="16" height="16"/>
		<rect x="1320.8" y="61.1" class="st1" width="16" height="16"/>
		<rect x="1336.9" y="61.1" class="st1" width="16" height="16"/>
		<rect x="1352.9" y="61.1" class="st2" width="16" height="16"/>
		<rect x="1368.9" y="61.1" class="st2" width="16" height="16"/>
		<rect x="1288.8" y="77.1" class="st1" width="16" height="16"/>
		<rect x="1304.8" y="77.1" class="st1" width="16" height="16"/>
		<rect x="1320.8" y="77.1" class="st2" width="16" height="16"/>
		<rect x="1336.9" y="77.1" class="st2" width="16" height="16"/>
		<rect x="1352.9" y="77.1" class="st3" width="16" height="16"/>
		<rect x="1368.9" y="77.1" class="st2" width="16" height="16"/>
		<rect x="1288.8" y="93.2" class="st1" width="16" height="16"/>
		<rect x="1304.8" y="93.2" class="st2" width="16" height="16"/>
		<rect x="1320.8" y="93.2" class="st2" width="16" height="16"/>
		<rect x="1336.9" y="93.2" class="st3" width="16" height="16"/>
		<rect x="1352.9" y="93.2" class="st2" width="16" height="16"/>
		<rect x="1368.9" y="93.2" class="st1" width="16" height="16"/>
		<rect x="1288.8" y="109.2" class="st1" width="16" height="16"/>
		<rect x="1304.8" y="109.2" class="st1" width="16" height="16"/>
		<rect x="1320.8" y="109.2" class="st2" width="16" height="16"/>
		<rect x="1336.9" y="109.2" class="st2" width="16" height="16"/>
		<rect x="1352.9" y="109.2" class="st1" width="16" height="16"/>
		<rect x="1368.9" y="109.2" class="st1" width="16" height="16"/>
		<rect x="1304.8" y="125.2" class="st1" width="16" height="16"/>
		<rect x="1320.8" y="125.2" class="st1" width="16" height="16"/>
		<rect x="1336.9" y="125.2" class="st1" width="16" height="16"/>
		<rect x="1352.9" y="125.2" class="st1" width="16" height="16"/>
		<rect x="1385" y="45.1" class="st1" width="16" height="16"/>
		<rect x="1385" y="61.1" class="st1" width="16" height="16"/>
		<rect x="1385" y="77.1" class="st1" width="16" height="16"/>
		<rect x="1385" y="93.2" class="st1" width="16" height="16"/>
	</g>
</g>
<g id="Layer_9">
	<g>
		<rect x="1488.4" y="13" class="st1" width="13.6" height="13.6"/>
		<rect x="1515.6" y="13" class="st1" width="13.6" height="13.6"/>
		<rect x="1529.2" y="13" class="st1" width="13.6" height="13.6"/>
		<rect x="1542.9" y="13" class="st1" width="13.6" height="13.6"/>
		<rect x="1502" y="26.6" class="st1" width="13.6" height="13.6"/>
		<rect x="1542.9" y="26.6" class="st1" width="13.6" height="13.6"/>
		<rect x="1556.5" y="26.6" class="st1" width="13.6" height="13.6"/>
		<rect x="1570.1" y="26.6" class="st1" width="13.6" height="13.6"/>
		<rect x="1474.7" y="40.3" class="st1" width="13.6" height="13.6"/>
		<rect x="1542.9" y="40.3" class="st1" width="13.6" height="13.6"/>
		<rect x="1556.5" y="40.3" class="st2" width="13.6" height="13.6"/>
		<rect x="1570.1" y="40.3" class="st1" width="13.6" height="13.6"/>
		<rect x="1515.6" y="53.9" class="st1" width="13.6" height="13.6"/>
		<rect x="1529.2" y="53.9" class="st1" width="13.6" height="13.6"/>
		<rect x="1542.9" y="53.9" class="st1" width="13.6" height="13.6"/>
		<rect x="1556.5" y="53.9" class="st2" width="13.6" height="13.6"/>
		<rect x="1570.1" y="53.9" class="st2" width="13.6" height="13.6"/>
		<rect x="1502" y="67.5" class="st1" width="13.6" height="13.6"/>
		<rect x="1515.6" y="67.5" class="st1" width="13.6" height="13.6"/>
		<rect x="1529.2" y="67.5" class="st2" width="13.6" height="13.6"/>
		<rect x="1542.9" y="67.5" class="st2" width="13.6" height="13.6"/>
		<rect x="1556.5" y="67.5" class="st3" width="13.6" height="13.6"/>
		<rect x="1570.1" y="67.5" class="st2" width="13.6" height="13.6"/>
		<rect x="1502" y="81.1" class="st1" width="13.6" height="13.6"/>
		<rect x="1515.6" y="81.1" class="st2" width="13.6" height="13.6"/>
		<rect x="1529.2" y="81.1" class="st2" width="13.6" height="13.6"/>
		<rect x="1542.9" y="81.1" class="st3" width="13.6" height="13.6"/>
		<rect x="1556.5" y="81.1" class="st2" width="13.6" height="13.6"/>
		<rect x="1570.1" y="81.1" class="st1" width="13.6" height="13.6"/>
		<rect x="1502" y="94.8" class="st1" width="13.6" height="13.6"/>
		<rect x="1515.6" y="94.8" class="st1" width="13.6" height="13.6"/>
		<rect x="1529.2" y="94.8" class="st2" width="13.6" height="13.6"/>
		<rect x="1542.9" y="94.8" class="st2" width="13.6" height="13.6"/>
		<rect x="1556.5" y="94.8" class="st1" width="13.6" height="13.6"/>
		<rect x="1570.1" y="94.8" class="st1" width="13.6" height="13.6"/>
		<rect x="1515.6" y="108.4" class="st1" width="13.6" height="13.6"/>
		<rect x="1529.2" y="108.4" class="st1" width="13.6" height="13.6"/>
		<rect x="1542.9" y="108.4" class="st1" width="13.6" height="13.6"/>
		<rect x="1556.5" y="108.4" class="st1" width="13.6" height="13.6"/>
		<rect x="1583.7" y="40.3" class="st1" width="13.6" height="13.6"/>
		<rect x="1583.7" y="53.9" class="st1" width="13.6" height="13.6"/>
		<rect x="1583.7" y="67.5" class="st1" width="13.6" height="13.6"/>
		<rect x="1583.7" y="81.1" class="st1" width="13.6" height="13.6"/>
	</g>
</g>
<g id="Layer_10">
	<g>
		<rect x="1713.9" y="13" class="st1" width="10.2" height="10.2"/>
		<rect x="1734.4" y="13" class="st1" width="10.2" height="10.2"/>
		<rect x="1744.6" y="13" class="st1" width="10.2" height="10.2"/>
		<rect x="1754.8" y="13" class="st1" width="10.2" height="10.2"/>
		<rect x="1724.1" y="23.2" class="st1" width="10.2" height="10.2"/>
		<rect x="1754.8" y="23.2" class="st1" width="10.2" height="10.2"/>
		<rect x="1765" y="23.2" class="st1" width="10.2" height="10.2"/>
		<rect x="1775.2" y="23.2" class="st1" width="10.2" height="10.2"/>
		<rect x="1703.7" y="33.4" class="st1" width="10.2" height="10.2"/>
		<rect x="1754.8" y="33.4" class="st1" width="10.2" height="10.2"/>
		<rect x="1765" y="33.4" class="st2" width="10.2" height="10.2"/>
		<rect x="1775.2" y="33.4" class="st1" width="10.2" height="10.2"/>
		<rect x="1734.4" y="43.7" class="st1" width="10.2" height="10.2"/>
		<rect x="1744.6" y="43.7" class="st1" width="10.2" height="10.2"/>
		<rect x="1754.8" y="43.7" class="st1" width="10.2" height="10.2"/>
		<rect x="1765" y="43.7" class="st2" width="10.2" height="10.2"/>
		<rect x="1775.2" y="43.7" class="st2" width="10.2" height="10.2"/>
		<rect x="1724.1" y="53.9" class="st1" width="10.2" height="10.2"/>
		<rect x="1734.4" y="53.9" class="st1" width="10.2" height="10.2"/>
		<rect x="1744.6" y="53.9" class="st2" width="10.2" height="10.2"/>
		<rect x="1754.8" y="53.9" class="st2" width="10.2" height="10.2"/>
		<rect x="1765" y="53.9" class="st3" width="10.2" height="10.2"/>
		<rect x="1775.2" y="53.9" class="st2" width="10.2" height="10.2"/>
		<rect x="1724.1" y="64.1" class="st1" width="10.2" height="10.2"/>
		<rect x="1734.4" y="64.1" class="st2" width="10.2" height="10.2"/>
		<rect x="1744.6" y="64.1" class="st2" width="10.2" height="10.2"/>
		<rect x="1754.8" y="64.1" class="st3" width="10.2" height="10.2"/>
		<rect x="1765" y="64.1" class="st2" width="10.2" height="10.2"/>
		<rect x="1775.2" y="64.1" class="st1" width="10.2" height="10.2"/>
		<rect x="1724.1" y="74.3" class="st1" width="10.2" height="10.2"/>
		<rect x="1734.4" y="74.3" class="st1" width="10.2" height="10.2"/>
		<rect x="1744.6" y="74.3" class="st2" width="10.2" height="10.2"/>
		<rect x="1754.8" y="74.3" class="st2" width="10.2" height="10.2"/>
		<rect x="1765" y="74.3" class="st1" width="10.2" height="10.2"/>
		<rect x="1775.2" y="74.3" class="st1" width="10.2" height="10.2"/>
		<rect x="1734.4" y="84.5" class="st1" width="10.2" height="10.2"/>
		<rect x="1744.6" y="84.5" class="st1" width="10.2" height="10.2"/>
		<rect x="1754.8" y="84.5" class="st1" width="10.2" height="10.2"/>
		<rect x="1765" y="84.5" class="st1" width="10.2" height="10.2"/>
		<rect x="1785.5" y="33.4" class="st1" width="10.2" height="10.2"/>
		<rect x="1785.5" y="43.7" class="st1" width="10.2" height="10.2"/>
		<rect x="1785.5" y="53.9" class="st1" width="10.2" height="10.2"/>
		<rect x="1785.5" y="64.1" class="st1" width="10.2" height="10.2"/>
	</g>
</g>
<g id="Layer_11">
	<g>
		<rect x="1942.8" y="13" class="st1" width="7" height="7"/>
		<rect x="1956.9" y="13" class="st1" width="7" height="7"/>
		<rect x="1963.9" y="13" class="st1" width="7" height="7"/>
		<rect x="1970.9" y="13" class="st1" width="7" height="7"/>
		<rect x="1949.8" y="20" class="st1" width="7" height="7"/>
		<rect x="1970.9" y="20" class="st1" width="7" height="7"/>
		<rect x="1977.9" y="20" class="st1" width="7" height="7"/>
		<rect x="1985" y="20" class="st1" width="7" height="7"/>
		<rect x="1935.8" y="27.1" class="st1" width="7" height="7"/>
		<rect x="1970.9" y="27.1" class="st1" width="7" height="7"/>
		<rect x="1977.9" y="27.1" class="st2" width="7" height="7"/>
		<rect x="1985" y="27.1" class="st1" width="7" height="7"/>
		<rect x="1956.9" y="34.1" class="st1" width="7" height="7"/>
		<rect x="1963.9" y="34.1" class="st1" width="7" height="7"/>
		<rect x="1970.9" y="34.1" class="st1" width="7" height="7"/>
		<rect x="1977.9" y="34.1" class="st2" width="7" height="7"/>
		<rect x="1985" y="34.1" class="st2" width="7" height="7"/>
		<rect x="1949.8" y="41.1" class="st1" width="7" height="7"/>
		<rect x="1956.9" y="41.1" class="st1" width="7" height="7"/>
		<rect x="1963.9" y="41.1" class="st2" width="7" height="7"/>
		<rect x="1970.9" y="41.1" class="st2" width="7" height="7"/>
		<rect x="1977.9" y="41.1" class="st3" width="7" height="7"/>
		<rect x="1985" y="41.1" class="st2" width="7" height="7"/>
		<rect x="1949.8" y="48.1" class="st1" width="7" height="7"/>
		<rect x="1956.9" y="48.1" class="st2" width="7" height="7"/>
		<rect x="1963.9" y="48.1" class="st2" width="7" height="7"/>
		<rect x="1970.9" y="48.1" class="st3" width="7" height="7"/>
		<rect x="1977.9" y="48.1" class="st2" width="7" height="7"/>
		<rect x="1985" y="48.1" class="st1" width="7" height="7"/>
		<rect x="1949.8" y="55.2" class="st1" width="7" height="7"/>
		<rect x="1956.9" y="55.2" class="st1" width="7" height="7"/>
		<rect x="1963.9" y="55.2" class="st2" width="7" height="7"/>
		<rect x="1970.9" y="55.2" class="st2" width="7" height="7"/>
		<rect x="1977.9" y="55.2" class="st1" width="7" height="7"/>
		<rect x="1985" y="55.2" class="st1" width="7" height="7"/>
		<rect x="1956.9" y="62.2" class="st1" width="7" height="7"/>
		<rect x="1963.9" y="62.2" class="st1" width="7" height="7"/>
		<rect x="1970.9" y="62.2" class="st1" width="7" height="7"/>
		<rect x="1977.9" y="62.2" class="st1" width="7" height="7"/>
		<rect x="1992" y="27.1" class="st1" width="7" height="7"/>
		<rect x="1992" y="34.1" class="st1" width="7" height="7"/>
		<rect x="1992" y="41.1" class="st1" width="7" height="7"/>
		<rect x="1992" y="48.1" class="st1" width="7" height="7"/>
	</g>
</g>
</svg>
