<?xml version="1.0" encoding="utf-8"?>
<!-- Generator: Adobe Illustrator 21.1.0, SVG Export Plug-In . SVG Version: 6.00 Build 0)  -->
<svg version="1.1" id="Layer_1" xmlns="http://www.w3.org/2000/svg" xmlns:xlink="http://www.w3.org/1999/xlink" x="0px" y="0px"
	 viewBox="0 0 141.2 200" style="enable-background:new 0 0 141.2 200;" xml:space="preserve">
<style type="text/css">
	.st0{fill:#6A8F2D;}
	.st1{fill:#93C01F;}
	.st2{fill:#B3DC00;}
</style>
<g>
	<rect y="105.9" class="st0" width="11.8" height="11.8"/>
	<rect x="23.5" y="117.6" class="st0" width="11.8" height="11.8"/>
	<rect x="35.3" y="105.9" class="st0" width="11.8" height="11.8"/>
	<rect x="47.1" y="117.6" class="st0" width="11.8" height="11.8"/>
	<rect x="47.1" y="105.9" class="st0" width="11.8" height="11.8"/>
	<rect x="58.8" y="164.7" class="st0" width="11.8" height="11.8"/>
	<rect x="58.8" y="141.2" class="st0" width="11.8" height="11.8"/>
	<rect x="58.8" y="129.4" class="st0" width="11.8" height="11.8"/>
	<rect x="58.8" y="117.6" class="st1" width="11.8" height="11.8"/>
	<rect x="58.8" y="105.9" class="st2" width="11.8" height="11.8"/>
	<rect x="70.6" y="188.2" class="st0" width="11.8" height="11.8"/>
	<rect x="70.6" y="152.9" class="st0" width="11.8" height="11.8"/>
	<rect x="70.6" y="129.4" class="st0" width="11.8" height="11.8"/>
	<rect x="70.6" y="117.6" class="st2" width="11.8" height="11.8"/>
	<rect x="70.6" y="105.9" class="st2" width="11.8" height="11.8"/>
	<rect x="82.4" y="117.6" class="st0" width="11.8" height="11.8"/>
	<rect x="82.4" y="105.9" class="st0" width="11.8" height="11.8"/>
	<rect x="94.1" y="105.9" class="st0" width="11.8" height="11.8"/>
	<rect x="129.4" y="129.4" class="st0" width="11.8" height="11.8"/>
	<rect x="129.4" y="105.9" class="st0" width="11.8" height="11.8"/>
	<rect y="94.1" class="st0" width="11.8" height="11.8"/>
	<rect x="23.5" y="94.1" class="st0" width="11.8" height="11.8"/>
	<rect x="35.3" y="94.1" class="st0" width="11.8" height="11.8"/>
	<rect x="47.1" y="94.1" class="st2" width="11.8" height="11.8"/>
	<rect x="58.8" y="94.1" class="st2" width="11.8" height="11.8"/>
	<rect x="70.6" y="94.1" class="st1" width="11.8" height="11.8"/>
	<rect x="82.4" y="94.1" class="st2" width="11.8" height="11.8"/>
	<rect x="94.1" y="94.1" class="st0" width="11.8" height="11.8"/>
	<rect x="105.9" y="94.1" class="st0" width="11.8" height="11.8"/>
	<rect x="129.4" y="94.1" class="st0" width="11.8" height="11.8"/>
	<rect y="82.4" class="st0" width="11.8" height="11.8"/>
	<rect y="70.6" class="st0" width="11.8" height="11.8"/>
	<rect y="58.8" class="st0" width="11.8" height="11.8"/>
	<rect y="47.1" class="st0" width="11.8" height="11.8"/>
	<rect x="11.8" y="82.4" class="st0" width="11.8" height="11.8"/>
	<rect x="11.8" y="70.6" class="st2" width="11.8" height="11.8"/>
	<rect x="11.8" y="58.8" class="st0" width="11.8" height="11.8"/>
	<rect x="11.8" y="47.1" class="st0" width="11.8" height="11.8"/>
	<rect x="11.8" y="35.3" class="st0" width="11.8" height="11.8"/>
	<rect x="11.8" y="23.5" class="st0" width="11.8" height="11.8"/>
	<rect x="23.5" y="82.4" class="st0" width="11.8" height="11.8"/>
	<rect x="23.5" y="70.6" class="st2" width="11.8" height="11.8"/>
	<rect x="23.5" y="58.8" class="st2" width="11.8" height="11.8"/>
	<rect x="23.5" y="47.1" class="st2" width="11.8" height="11.8"/>
	<rect x="23.5" y="35.3" class="st0" width="11.8" height="11.8"/>
	<rect x="23.5" y="23.5" class="st0" width="11.8" height="11.8"/>
	<rect x="23.5" y="11.8" class="st0" width="11.8" height="11.8"/>
	<rect x="35.3" y="82.4" class="st2" width="11.8" height="11.8"/>
	<rect x="35.3" y="70.6" class="st1" width="11.8" height="11.8"/>
	<rect x="35.3" y="58.8" class="st2" width="11.8" height="11.8"/>
	<rect x="35.3" y="47.1" class="st2" width="11.8" height="11.8"/>
	<rect x="35.3" y="35.3" class="st2" width="11.8" height="11.8"/>
	<rect x="35.3" y="23.5" class="st2" width="11.8" height="11.8"/>
	<rect x="35.3" y="11.8" class="st0" width="11.8" height="11.8"/>
	<rect x="47.1" y="82.4" class="st2" width="11.8" height="11.8"/>
	<rect x="47.1" y="70.6" class="st2" width="11.8" height="11.8"/>
	<rect x="47.1" y="58.8" class="st2" width="11.8" height="11.8"/>
	<rect x="47.1" y="47.1" class="st1" width="11.8" height="11.8"/>
	<rect x="47.1" y="35.3" class="st1" width="11.8" height="11.8"/>
	<rect x="47.1" y="23.5" class="st2" width="11.8" height="11.8"/>
	<rect x="47.1" y="11.8" class="st1" width="11.8" height="11.8"/>
	<rect x="47.1" y="0" class="st0" width="11.8" height="11.8"/>
	<rect x="58.8" y="82.4" class="st1" width="11.8" height="11.8"/>
	<rect x="58.8" y="70.6" class="st2" width="11.8" height="11.8"/>
	<rect x="58.8" y="58.8" class="st1" width="11.8" height="11.8"/>
	<rect x="58.8" y="47.1" class="st2" width="11.8" height="11.8"/>
	<rect x="58.8" y="35.3" class="st0" width="11.8" height="11.8"/>
	<rect x="58.8" y="23.5" class="st1" width="11.8" height="11.8"/>
	<rect x="58.8" y="11.8" class="st2" width="11.8" height="11.8"/>
	<rect x="58.8" y="0" class="st0" width="11.8" height="11.8"/>
	<rect x="70.6" y="82.4" class="st2" width="11.8" height="11.8"/>
	<rect x="70.6" y="70.6" class="st1" width="11.8" height="11.8"/>
	<rect x="70.6" y="58.8" class="st1" width="11.8" height="11.8"/>
	<rect x="70.6" y="47.1" class="st0" width="11.8" height="11.8"/>
	<rect x="70.6" y="35.3" class="st0" width="11.8" height="11.8"/>
	<rect x="70.6" y="23.5" class="st1" width="11.8" height="11.8"/>
	<rect x="70.6" y="11.8" class="st2" width="11.8" height="11.8"/>
	<rect x="70.6" y="0" class="st0" width="11.8" height="11.8"/>
	<rect x="82.4" y="82.4" class="st2" width="11.8" height="11.8"/>
	<rect x="82.4" y="70.6" class="st2" width="11.8" height="11.8"/>
	<rect x="82.4" y="58.8" class="st2" width="11.8" height="11.8"/>
	<rect x="82.4" y="47.1" class="st1" width="11.8" height="11.8"/>
	<rect x="82.4" y="35.3" class="st1" width="11.8" height="11.8"/>
	<rect x="82.4" y="23.5" class="st2" width="11.8" height="11.8"/>
	<rect x="82.4" y="11.8" class="st2" width="11.8" height="11.8"/>
	<rect x="82.4" y="0" class="st0" width="11.8" height="11.8"/>
	<rect x="94.1" y="82.4" class="st2" width="11.8" height="11.8"/>
	<rect x="94.1" y="70.6" class="st1" width="11.8" height="11.8"/>
	<rect x="94.1" y="58.8" class="st2" width="11.8" height="11.8"/>
	<rect x="94.1" y="47.1" class="st1" width="11.8" height="11.8"/>
	<rect x="94.1" y="35.3" class="st2" width="11.8" height="11.8"/>
	<rect x="94.1" y="23.5" class="st2" width="11.8" height="11.8"/>
	<rect x="94.1" y="11.8" class="st0" width="11.8" height="11.8"/>
	<rect x="105.9" y="82.4" class="st0" width="11.8" height="11.8"/>
	<rect x="105.9" y="70.6" class="st2" width="11.8" height="11.8"/>
	<rect x="105.9" y="58.8" class="st2" width="11.8" height="11.8"/>
	<rect x="105.9" y="47.1" class="st2" width="11.8" height="11.8"/>
	<rect x="105.9" y="35.3" class="st0" width="11.8" height="11.8"/>
	<rect x="105.9" y="23.5" class="st0" width="11.8" height="11.8"/>
	<rect x="105.9" y="11.8" class="st0" width="11.8" height="11.8"/>
	<rect x="117.6" y="82.4" class="st0" width="11.8" height="11.8"/>
	<rect x="117.6" y="70.6" class="st2" width="11.8" height="11.8"/>
	<rect x="117.6" y="58.8" class="st0" width="11.8" height="11.8"/>
	<rect x="117.6" y="47.1" class="st0" width="11.8" height="11.8"/>
	<rect x="117.6" y="35.3" class="st0" width="11.8" height="11.8"/>
	<rect x="117.6" y="23.5" class="st0" width="11.8" height="11.8"/>
	<rect x="129.4" y="82.4" class="st0" width="11.8" height="11.8"/>
	<rect x="129.4" y="70.6" class="st0" width="11.8" height="11.8"/>
	<rect x="129.4" y="58.8" class="st0" width="11.8" height="11.8"/>
	<rect x="129.4" y="47.1" class="st0" width="11.8" height="11.8"/>
</g>
</svg>
