<?xml version="1.0" encoding="utf-8"?>
<!-- Generator: Adobe Illustrator 21.1.0, SVG Export Plug-In . SVG Version: 6.00 Build 0)  -->
<svg version="1.1" id="Layer_1" xmlns="http://www.w3.org/2000/svg" xmlns:xlink="http://www.w3.org/1999/xlink" x="0px" y="0px"
	 viewBox="0 0 200 200" style="enable-background:new 0 0 200 200;" xml:space="preserve">
<style type="text/css">
	.st0{fill:#93C01F;}
	.st1{fill:#DEDC00;}
	.st2{fill:#B3DC00;}
</style>
<g>
	<rect x="90.9" y="47.3" class="st0" width="18.2" height="18.2"/>
	<rect x="90.9" y="65.4" class="st1" width="18.2" height="18.2"/>
	<rect y="83.6" class="st1" width="18.2" height="18.2"/>
	<rect x="72.7" y="83.6" class="st1" width="18.2" height="18.2"/>
	<rect x="90.9" y="83.6" class="st2" width="18.2" height="18.2"/>
	<rect x="109.1" y="83.6" class="st2" width="18.2" height="18.2"/>
	<rect y="101.8" class="st1" width="18.2" height="18.2"/>
	<rect x="18.2" y="101.8" class="st2" width="18.2" height="18.2"/>
	<rect x="54.5" y="101.8" class="st1" width="18.2" height="18.2"/>
	<rect x="72.7" y="101.8" class="st2" width="18.2" height="18.2"/>
	<rect x="90.9" y="101.8" class="st0" width="18.2" height="18.2"/>
	<rect x="109.1" y="101.8" class="st2" width="18.2" height="18.2"/>
	<rect x="127.3" y="101.8" class="st2" width="18.2" height="18.2"/>
	<rect x="163.6" y="101.8" class="st1" width="18.2" height="18.2"/>
	<rect y="120" class="st0" width="18.2" height="18.2"/>
	<rect x="18.2" y="120" class="st2" width="18.2" height="18.2"/>
	<rect x="36.4" y="120" class="st0" width="18.2" height="18.2"/>
	<rect x="54.5" y="120" class="st2" width="18.2" height="18.2"/>
	<rect x="72.7" y="120" class="st0" width="18.2" height="18.2"/>
	<rect x="90.9" y="120" class="st2" width="18.2" height="18.2"/>
	<rect x="109.1" y="120" class="st0" width="18.2" height="18.2"/>
	<rect x="127.3" y="120" class="st2" width="18.2" height="18.2"/>
	<rect x="145.5" y="120" class="st0" width="18.2" height="18.2"/>
	<rect x="163.6" y="120" class="st2" width="18.2" height="18.2"/>
	<rect y="138.2" class="st2" width="18.2" height="18.2"/>
	<rect x="18.2" y="138.2" class="st0" width="18.2" height="18.2"/>
	<rect x="36.4" y="138.2" class="st2" width="18.2" height="18.2"/>
	<rect x="54.5" y="138.2" class="st0" width="18.2" height="18.2"/>
	<rect x="72.7" y="138.2" class="st2" width="18.2" height="18.2"/>
	<rect x="90.9" y="138.2" class="st2" width="18.2" height="18.2"/>
	<rect x="109.1" y="138.2" class="st2" width="18.2" height="18.2"/>
	<rect x="127.3" y="138.2" class="st0" width="18.2" height="18.2"/>
	<rect x="145.5" y="138.2" class="st2" width="18.2" height="18.2"/>
	<rect x="163.6" y="138.2" class="st0" width="18.2" height="18.2"/>
	<rect x="181.8" y="83.6" class="st1" width="18.2" height="18.2"/>
	<rect x="181.8" y="101.8" class="st2" width="18.2" height="18.2"/>
	<rect x="181.8" y="120" class="st0" width="18.2" height="18.2"/>
	<rect x="181.8" y="138.2" class="st2" width="18.2" height="18.2"/>
	<rect y="156.3" class="st2" width="18.2" height="18.2"/>
	<rect x="18.2" y="156.3" class="st0" width="18.2" height="18.2"/>
	<rect x="36.4" y="156.3" class="st2" width="18.2" height="18.2"/>
	<rect x="54.5" y="156.3" class="st0" width="18.2" height="18.2"/>
	<rect x="72.7" y="156.3" class="st2" width="18.2" height="18.2"/>
	<rect x="90.9" y="156.3" class="st2" width="18.2" height="18.2"/>
	<rect x="109.1" y="156.3" class="st2" width="18.2" height="18.2"/>
	<rect x="127.3" y="156.3" class="st0" width="18.2" height="18.2"/>
	<rect x="145.5" y="156.3" class="st2" width="18.2" height="18.2"/>
	<rect x="163.6" y="156.3" class="st0" width="18.2" height="18.2"/>
	<rect x="181.8" y="156.3" class="st2" width="18.2" height="18.2"/>
</g>
</svg>
